<svg width="35" height="20" viewBox="0 0 35 20" fill="none" xmlns="http://www.w3.org/2000/svg">
<g clip-path="url(#clip0_14_831)">
<path d="M34.5274 8.85839L34.5259 8.85686L26.1064 0.469764C25.4757 -0.158543 24.4555 -0.156205 23.8276 0.475247C23.1997 1.1067 23.2022 2.12783 23.833 2.75621L29.4859 8.38718H1.61133C0.721391 8.38718 0 9.10928 0 10.0001C0 10.8909 0.721391 11.613 1.61133 11.613H29.4858L23.8331 17.244C23.2023 17.8723 23.1999 18.8936 23.8277 19.5249C24.4555 20.1565 25.4758 20.1586 26.1065 19.5304L34.526 11.1433L34.5275 11.1418C35.1585 10.5113 35.1565 9.48678 34.5274 8.85839Z" fill="#222222"/>
</g>
<defs>
<clipPath id="clip0_14_831">
<rect width="35" height="20" fill="white"/>
</clipPath>
</defs>
</svg>
