<svg width="106" height="100" viewBox="0 0 106 100" fill="none" xmlns="http://www.w3.org/2000/svg">
<g clip-path="url(#clip0_14_197)">
<path d="M104.807 59.1246C103.704 57.28 99.1965 51.7813 87.5422 58.4861L70.8051 68.1147C70.4517 68.3187 70.0871 68.5027 69.713 68.666C69.7697 68.4948 69.8215 68.3221 69.8683 68.148C70.4377 66.0294 70.1063 63.7363 68.9588 61.8566C67.8537 60.0461 66.1291 58.8053 64.1031 58.3624C58.4314 57.1227 52.81 55.1882 48.2932 53.6336C46.8868 53.1497 45.5586 52.6925 44.4195 52.3241C39.1577 50.6233 34.4783 52.6861 30.5952 54.9285L16.8821 62.8472L15.6901 60.748C14.985 59.5059 13.8339 58.6114 12.4492 58.229C11.0643 57.8467 9.61557 58.0229 8.3696 58.7256L2.93358 61.7919C0.355996 63.2457 -0.554135 66.5189 0.904467 69.088L16.8865 97.2336C17.8737 98.9718 19.6963 99.949 21.5703 99.949C22.4659 99.949 23.3733 99.7258 24.2068 99.2557L29.6429 96.1894C30.8888 95.4867 31.7864 94.3394 32.1703 92.9593C32.5542 91.5792 32.377 90.135 31.672 88.8934L30.643 87.0815L32.9555 85.7509L57.451 92.2926C58.8909 92.6773 60.3241 92.8683 61.7336 92.8683C64.5872 92.8683 67.344 92.085 69.8643 90.5382L102.387 70.5783C105.937 68.3997 107.09 62.9405 104.807 59.1246ZM27.3157 91.6183C27.3048 91.6604 27.2856 91.7 27.2592 91.7346C27.2328 91.7692 27.1997 91.7983 27.1618 91.82L21.7258 94.8863C21.5709 94.9733 21.3585 94.9149 21.2707 94.7605L5.28888 66.6151C5.20135 66.461 5.26012 66.2488 5.41503 66.1616L10.851 63.0953C10.9058 63.0645 10.96 63.0543 11.0078 63.0543C11.0442 63.0543 11.0771 63.0601 11.104 63.0675C11.1661 63.0846 11.252 63.1252 11.3061 63.2208L27.2882 91.3664C27.3423 91.462 27.3331 91.5562 27.3157 91.6183ZM99.746 66.3026L67.2231 86.2626C64.6304 87.8536 61.7814 88.2507 58.7551 87.4428L33.2519 80.6319C32.6067 80.4596 31.9192 80.5497 31.3407 80.8825L28.162 82.7116L19.3638 67.2172L33.1207 59.2733C37.3181 56.8499 40.1415 56.2202 42.8656 57.1007C43.9594 57.4541 45.266 57.9039 46.6492 58.3798C51.2899 59.9771 57.0654 61.9645 63.0242 63.267C63.6932 63.4131 64.2723 63.839 64.6554 64.4664C65.0911 65.18 65.2175 66.0484 65.0024 66.8488C64.8493 67.4183 64.4012 69.0905 61.7867 68.9482C58.6644 68.3394 50.2627 65.9641 48.8568 65.5888C47.513 65.2294 46.132 66.0248 45.7719 67.3639C45.4117 68.703 46.2093 70.0796 47.5531 70.4384C48.9233 70.8043 57.0694 73.1072 60.0819 73.7281C60.3881 73.802 62.3746 74.1631 63.0293 74.2674C66.801 74.8689 70.168 74.2787 73.3235 72.4631L90.0605 62.8346C95.1544 59.9041 99.1474 59.4674 100.481 61.6961C101.443 63.3047 100.871 65.612 99.746 66.3026ZM60.1373 51.511C74.3717 51.511 85.9524 39.9687 85.9524 25.7815C85.9524 11.594 74.3717 0.0517578 60.1373 0.0517578C45.9026 0.0517578 34.322 11.594 34.322 25.7815C34.3222 39.9687 45.9028 51.511 60.1373 51.511ZM60.1373 5.07247C71.5941 5.07247 80.9147 14.3624 80.9147 25.7813C80.9147 37.2001 71.5939 46.4898 60.1373 46.4898C48.6805 46.4898 39.3596 37.2001 39.3596 25.7813C39.3596 14.3624 48.6805 5.07247 60.1373 5.07247ZM50.4971 20.0379C50.4971 16.2327 53.5204 13.0206 57.6185 12.0702V10.8543C57.6185 9.46787 58.7463 8.34381 60.1373 8.34381C61.5283 8.34381 62.6561 9.46787 62.6561 10.8543V12.0708C65.9005 12.8227 68.5335 14.9946 69.4399 17.858C69.8584 19.1804 69.1221 20.5905 67.7955 21.0076C66.4694 21.4246 65.0542 20.6907 64.6357 19.3687C64.2327 18.0949 62.5581 16.8053 60.1373 16.8053C57.6424 16.8053 55.5348 18.2856 55.5348 20.0379C55.5348 21.7903 57.6424 23.2706 60.1373 23.2706C65.4528 23.2706 69.7774 26.9731 69.7774 31.5244C69.7774 35.3296 66.7542 38.5417 62.6561 39.4921V40.708C62.6561 42.0944 61.5283 43.2185 60.1373 43.2185C58.7463 43.2185 57.6185 42.0944 57.6185 40.708V39.4978C54.7141 38.8367 52.3098 37.0463 51.1701 34.5706C50.5899 33.3105 51.1445 31.8202 52.4089 31.2419C53.6734 30.6635 55.1683 31.2164 55.7489 32.4764C56.367 33.8191 58.1715 34.7568 60.1375 34.7568C62.6324 34.7568 64.74 33.2764 64.74 31.5241C64.74 29.7718 62.6322 28.2913 60.1375 28.2913C54.8217 28.2915 50.4971 24.589 50.4971 20.0379Z" fill="#222222"/>
<path d="M60.1373 51.511C74.3717 51.511 85.9524 39.9687 85.9524 25.7815C85.9524 11.594 74.3717 0.0517578 60.1373 0.0517578C45.9026 0.0517578 34.322 11.594 34.322 25.7815C34.3222 39.9687 45.9028 51.511 60.1373 51.511ZM60.1373 5.07247C71.5941 5.07247 80.9147 14.3624 80.9147 25.7813C80.9147 37.2001 71.5939 46.4898 60.1373 46.4898C48.6804 46.4898 39.3596 37.2001 39.3596 25.7813C39.3596 14.3624 48.6804 5.07247 60.1373 5.07247ZM50.4971 20.0379C50.4971 16.2327 53.5203 13.0206 57.6185 12.0702V10.8543C57.6185 9.46787 58.7463 8.34381 60.1373 8.34381C61.5283 8.34381 62.6561 9.46787 62.6561 10.8543V12.0708C65.9005 12.8227 68.5335 14.9946 69.4399 17.858C69.8584 19.1804 69.1221 20.5905 67.7955 21.0076C66.4694 21.4246 65.0542 20.6907 64.6357 19.3687C64.2326 18.0949 62.5581 16.8053 60.1373 16.8053C57.6424 16.8053 55.5348 18.2856 55.5348 20.0379C55.5348 21.7903 57.6424 23.2706 60.1373 23.2706C65.4528 23.2706 69.7774 26.9731 69.7774 31.5244C69.7774 35.3296 66.7542 38.5417 62.6561 39.4921V40.708C62.6561 42.0944 61.5283 43.2185 60.1373 43.2185C58.7463 43.2185 57.6185 42.0944 57.6185 40.708V39.4978C54.7141 38.8367 52.3098 37.0463 51.1701 34.5706C50.5899 33.3105 51.1445 31.8202 52.4089 31.2419C53.6734 30.6635 55.1683 31.2164 55.7489 32.4764C56.367 33.8191 58.1715 34.7568 60.1375 34.7568C62.6324 34.7568 64.74 33.2764 64.74 31.5241C64.74 29.7718 62.6321 28.2913 60.1375 28.2913C54.8217 28.2915 50.4971 24.589 50.4971 20.0379Z" fill="#46A622"/>
</g>
<defs>
<clipPath id="clip0_14_197">
<rect width="106" height="100" fill="white"/>
</clipPath>
</defs>
</svg>
