<svg width="89" height="100" viewBox="0 0 89 100" fill="none" xmlns="http://www.w3.org/2000/svg">
<g clip-path="url(#clip0_14_210)">
<path d="M24.6643 26.6065H24.6486C24.4724 26.6046 24.2983 26.5679 24.1362 26.4984C23.9741 26.4289 23.8272 26.328 23.704 26.2016C23.5807 26.0751 23.4835 25.9255 23.4178 25.7613C23.3522 25.5972 23.3194 25.4216 23.3213 25.2447C23.4352 15.2103 30.6404 6.5399 40.4553 4.62829C40.8005 4.56986 41.1548 4.64917 41.4426 4.84931C41.7304 5.04945 41.9289 5.35457 41.9957 5.69956C42.0625 6.04455 41.9924 6.4021 41.8003 6.69591C41.6082 6.98972 41.3093 7.19654 40.9674 7.27222C32.3952 8.94252 26.1035 16.5134 26.0052 25.2751C26.0014 25.6297 25.8584 25.9684 25.6074 26.2178C25.3564 26.4673 25.0175 26.6073 24.6643 26.6076V26.6065ZM64.3356 26.6065C63.9826 26.6063 63.6439 26.4664 63.3929 26.2172C63.1419 25.9679 62.9989 25.6295 62.9947 25.2751C62.8965 16.5134 56.6048 8.94252 48.0325 7.27222C47.856 7.24234 47.6872 7.17729 47.536 7.0809C47.3849 6.98451 47.2545 6.85873 47.1525 6.71098C47.0506 6.56323 46.9791 6.39648 46.9423 6.22057C46.9055 6.04466 46.9042 5.86314 46.9384 5.6867C46.9725 5.51026 47.0415 5.34247 47.1413 5.19321C47.2411 5.04395 47.3696 4.91624 47.5193 4.81761C47.669 4.71898 47.8368 4.65142 48.0129 4.6189C48.189 4.58639 48.3698 4.58958 48.5447 4.62829C58.3595 6.5399 65.5647 15.2103 65.6776 25.2447C65.686 25.9886 65.0923 26.5981 64.3513 26.6065H64.3356ZM44.5 58.9118C33.8939 58.9118 25.2653 50.2487 25.2653 39.6017C25.2653 38.8578 25.8652 38.2167 26.6072 38.2167C27.3493 38.2167 27.9481 38.7823 27.9481 39.5261C27.9481 48.7642 35.3738 56.2175 44.5 56.2175C53.6261 56.2175 61.0518 48.7642 61.0518 39.6017C61.0518 38.8578 61.6517 38.2167 62.3927 38.2167C63.1337 38.2167 63.7347 38.7823 63.7347 39.5261V39.6017C63.7347 50.2487 55.106 58.9118 44.5 58.9118Z" fill="#222222" stroke="#222222"/>
<path d="M66.033 34.4062H22.967C22.3631 34.407 21.7684 34.2569 21.2367 33.9693C20.705 33.6817 20.253 33.2658 19.9215 32.7589C19.5885 32.2527 19.3864 31.6712 19.3335 31.0668C19.2806 30.4625 19.3785 29.8545 19.6184 29.2977L20.026 28.3513C20.6909 26.8007 21.794 25.4798 23.1989 24.5519C24.6037 23.624 26.2487 23.1299 27.9304 23.1306H61.0696C62.7515 23.1297 64.3967 23.6237 65.8017 24.5516C67.2068 25.4795 68.3101 26.8006 68.975 28.3513L69.3805 29.2977C69.6203 29.8544 69.7181 30.4622 69.6652 31.0663C69.6122 31.6704 69.4103 32.2518 69.0775 32.7579C68.7462 33.2648 68.2944 33.6809 67.7629 33.9686C67.2314 34.2564 66.6369 34.4067 66.033 34.4062ZM27.9304 25.8239C26.7727 25.8226 25.6401 26.1625 24.6729 26.8012C23.7058 27.44 22.9466 28.3496 22.4894 29.4173L22.0839 30.3637C22.0198 30.5103 21.9935 30.6707 22.0074 30.8302C22.0213 30.9898 22.0749 31.1432 22.1633 31.2765C22.25 31.4111 22.3691 31.5216 22.5095 31.5979C22.65 31.6742 22.8073 31.7138 22.967 31.7129H66.033C66.1926 31.7139 66.3498 31.6745 66.4903 31.5984C66.6308 31.5223 66.7499 31.4119 66.8367 31.2775C66.9251 31.1442 66.9787 30.9908 66.9926 30.8313C67.0065 30.6718 66.9802 30.5113 66.9161 30.3647L66.5106 29.4173C66.0533 28.3498 65.294 27.4404 64.3269 26.8018C63.3597 26.1633 62.2272 25.8236 61.0696 25.8249L27.9304 25.8239ZM44.5 14.0814C43.1395 14.0798 41.8352 13.5365 40.8732 12.5708C39.9112 11.605 39.37 10.2957 39.3684 8.92996V5.31554C39.3684 2.47541 41.6708 0.164062 44.5 0.164062C47.3292 0.164062 49.6316 2.47541 49.6316 5.31554V8.92892C49.63 10.2947 49.0888 11.604 48.1268 12.5697C47.1648 13.5354 45.8605 14.0787 44.5 14.0804V14.0814ZM44.5 2.85836C43.851 2.85919 43.2288 3.1183 42.7698 3.5789C42.3107 4.03951 42.0524 4.66401 42.0513 5.31554V8.92892C42.0513 10.2845 43.1497 11.3871 44.5 11.3871C45.8503 11.3871 46.9488 10.2845 46.9488 8.92892V5.31554C46.9477 4.66401 46.6893 4.03951 46.2303 3.5789C45.7712 3.1183 45.149 2.85919 44.5 2.85836ZM62.1733 17.7903H56.981C56.6251 17.7903 56.2838 17.6484 56.0321 17.3957C55.7805 17.1431 55.6391 16.8004 55.6391 16.4431C55.6391 16.0859 55.7805 15.7432 56.0321 15.4906C56.2838 15.2379 56.6251 15.096 56.981 15.096H62.1733C62.5292 15.096 62.8705 15.2379 63.1222 15.4906C63.3739 15.7432 63.5152 16.0859 63.5152 16.4431C63.5152 16.8004 63.3739 17.1431 63.1222 17.3957C62.8705 17.6484 62.5292 17.7903 62.1733 17.7903ZM32.019 17.7903H26.8267C26.4708 17.7903 26.1295 17.6484 25.8778 17.3957C25.6262 17.1431 25.4848 16.8004 25.4848 16.4431C25.4848 16.0859 25.6262 15.7432 25.8778 15.4906C26.1295 15.2379 26.4708 15.096 26.8267 15.096H32.019C32.3749 15.096 32.7162 15.2379 32.9679 15.4906C33.2195 15.7432 33.3609 16.0859 33.3609 16.4431C33.3609 16.8004 33.2195 17.1431 32.9679 17.3957C32.7162 17.6484 32.3749 17.7903 32.019 17.7903ZM75.0097 64.4767C74.8074 64.4768 74.6078 64.431 74.4257 64.3428C74.2435 64.2545 74.0836 64.1261 73.9579 63.9671C73.8322 63.8081 73.7439 63.6226 73.6996 63.4246C73.6553 63.2265 73.6562 63.0209 73.7022 62.8232L75.9388 53.2127C76.0264 52.872 76.2434 52.5793 76.5432 52.3971C76.8431 52.2149 77.2021 52.1577 77.5434 52.2378C77.8847 52.3178 78.1813 52.5287 78.3697 52.8254C78.5581 53.1221 78.6234 53.481 78.5516 53.8254L76.315 63.4359C76.2461 63.7317 76.0796 63.9953 75.8427 64.1842C75.6058 64.3732 75.3122 64.4762 75.0097 64.4767ZM82.4981 74.3096C82.2905 74.3099 82.0857 74.2619 81.8997 74.1692C81.7138 74.0765 81.5518 73.9418 81.4266 73.7756C81.3014 73.6094 81.2163 73.4163 81.1781 73.2115C81.1398 73.0066 81.1495 72.7957 81.2063 72.5953L84.9102 59.4606C85.0073 59.1169 85.2363 58.826 85.547 58.6519C85.8576 58.4778 86.2245 58.4347 86.5668 58.5321C86.9091 58.6294 87.1989 58.8594 87.3724 59.1712C87.5458 59.4831 87.5888 59.8514 87.4917 60.195L83.7888 73.3297C83.6216 73.9225 83.0834 74.3096 82.4981 74.3096ZM6.50194 74.3096C5.91666 74.3096 5.37842 73.9225 5.21119 73.3297L1.50827 60.194C1.4603 60.0238 1.44619 59.8458 1.46674 59.6702C1.48729 59.4946 1.54209 59.3247 1.62803 59.1703C1.71397 59.016 1.82935 58.8801 1.9676 58.7705C2.10584 58.6609 2.26424 58.5797 2.43374 58.5315C2.60324 58.4834 2.78053 58.4692 2.95549 58.4898C3.13045 58.5105 3.29965 58.5655 3.45342 58.6518C3.6072 58.738 3.74254 58.8539 3.85172 58.9926C3.96091 59.1314 4.04179 59.2904 4.08976 59.4606L7.79268 72.5963C7.84926 72.7966 7.85878 73.0073 7.82051 73.2119C7.78224 73.4165 7.69722 73.6095 7.57213 73.7755C7.44704 73.9415 7.28529 74.0762 7.09959 74.1689C6.9139 74.2616 6.70932 74.3097 6.50194 74.3096ZM71.4092 99.8362H17.5908C16.1784 99.8333 14.8054 99.3687 13.6795 98.5127C12.5535 97.6567 11.7359 96.4558 11.3503 95.0918L9.69692 89.2458C9.64502 89.0745 9.62765 88.8945 9.64582 88.7164C9.664 88.5383 9.71736 88.3656 9.80278 88.2085C9.8882 88.0513 10.004 87.9128 10.1433 87.8011C10.2827 87.6893 10.4428 87.6066 10.6144 87.5577C10.786 87.5089 10.9655 87.4948 11.1426 87.5164C11.3196 87.538 11.4906 87.5948 11.6455 87.6835C11.8005 87.7721 11.9362 87.8909 12.0449 88.0329C12.1536 88.1749 12.2329 88.3372 12.2784 88.5103L13.9318 94.3605C14.1575 95.1603 14.6366 95.8645 15.2967 96.3664C15.9567 96.8682 16.7618 97.1405 17.5898 97.1419H71.4081C72.2358 97.1414 73.0407 96.8701 73.7009 96.3689C74.361 95.8677 74.8403 95.1641 75.0661 94.3647L76.7195 88.5103C76.823 88.1743 77.0534 87.8922 77.3613 87.7244C77.6692 87.5565 78.0303 87.5163 78.3675 87.6122C78.7046 87.7081 78.9909 87.9326 79.1654 88.2376C79.3398 88.5427 79.3885 88.9041 79.301 89.2447L77.6476 95.096C77.2613 96.4591 76.4435 97.6588 75.3179 98.514C74.1922 99.3692 72.8209 99.8333 71.4092 99.8362Z" fill="#222222" stroke="#222222"/>
<path d="M81.1321 64.4764H7.86794C6.3848 64.4691 4.94299 63.9851 3.75389 63.0952C2.5648 62.2053 1.69099 60.9564 1.26058 59.5316L0.386846 56.5897C-0.637389 53.1473 1.30343 49.4553 4.71163 48.3578C7.65369 47.4104 10.9156 48.6726 12.4655 51.3585C13.1762 52.5923 13.3016 54.0654 12.8073 55.4031C12.5649 56.0615 12.1802 56.6578 11.6809 57.1493C11.1816 57.6407 10.5801 58.015 9.91955 58.2453L8.2421 58.8328C8.07575 58.891 7.89962 58.9158 7.72374 58.9057C7.54787 58.8955 7.3757 58.8507 7.21707 58.7738C7.05844 58.6969 6.91646 58.5894 6.79923 58.4574C6.682 58.3254 6.59181 58.1715 6.53382 58.0045C6.47584 57.8375 6.45118 57.6607 6.46126 57.4841C6.47135 57.3076 6.51597 57.1347 6.5926 56.9755C6.66922 56.8163 6.77633 56.6737 6.90782 56.556C7.03932 56.4384 7.19261 56.3478 7.35896 56.2896L9.03641 55.7021C9.32335 55.6017 9.58461 55.4389 9.80145 55.2252C10.0183 55.0115 10.1853 54.7523 10.2906 54.4661C10.3965 54.1804 10.4381 53.8746 10.4125 53.5708C10.3868 53.2669 10.2945 52.9726 10.1422 52.7088C9.68885 51.9307 8.98565 51.3303 8.14783 51.006C7.31002 50.6818 6.38732 50.6529 5.53101 50.9241C4.55263 51.2446 3.73694 51.9349 3.25666 52.8486C2.77638 53.7624 2.66922 54.8279 2.95788 55.8196L3.83162 58.7615C4.09498 59.6319 4.629 60.3948 5.3555 60.9386C6.082 61.4823 6.96282 61.7782 7.86899 61.7831H81.1311C82.0372 61.7782 82.918 61.4823 83.6445 60.9386C84.371 60.3948 84.9051 59.6319 85.1684 58.7615L86.0422 55.8196C86.3308 54.8279 86.2237 53.7624 85.7434 52.8486C85.2631 51.9349 84.4474 51.2446 83.469 50.9241C82.6128 50.6536 81.6904 50.6827 80.8528 51.0067C80.0152 51.3307 79.3119 51.9304 78.8579 52.7077C78.7052 52.9716 78.6126 53.2661 78.5868 53.5701C78.561 53.8741 78.6025 54.1801 78.7084 54.4661C78.8138 54.7524 78.981 55.0117 79.198 55.2254C79.415 55.4391 79.6765 55.6019 79.9636 55.7021L81.6411 56.2896C81.9769 56.4072 82.2524 56.6538 82.4071 56.9754C82.5617 57.2969 82.5828 57.6669 82.4657 58.004C82.3486 58.3411 82.1029 58.6177 81.7826 58.7729C81.4623 58.9282 81.0938 58.9493 80.7579 58.8318L79.0805 58.2442C78.42 58.0141 77.8186 57.6399 77.3193 57.1487C76.82 56.6574 76.4353 56.0613 76.1928 55.4031C75.9487 54.7454 75.8528 54.0416 75.9119 53.3423C75.971 52.643 76.1836 51.9655 76.5345 51.3585C78.0845 48.6726 81.3453 47.4104 84.2884 48.3578C87.6956 49.4542 89.6364 53.1473 88.6132 56.5897L87.7395 59.5316C87.309 60.9566 86.435 62.2056 85.2457 63.0955C84.0564 63.9854 82.6154 64.4694 81.1321 64.4764Z" fill="#46A622" stroke="#46A622"/>
<path d="M74.4257 64.343C74.6078 64.4312 74.8074 64.477 75.0097 64.4769C75.3122 64.4764 75.6058 64.3734 75.8427 64.1844C76.0796 63.9955 76.2461 63.7319 76.315 63.4361L78.5516 53.8256C78.6234 53.4812 78.5581 53.1223 78.3697 52.8256C78.1813 52.5289 77.8847 52.318 77.5434 52.238C77.2021 52.1579 76.8431 52.2151 76.5432 52.3973C76.2434 52.5795 76.0264 52.8722 75.9388 53.2129L73.7022 62.8234C73.6562 63.0211 73.6553 63.2267 73.6996 63.4248C73.7439 63.6228 73.8322 63.8083 73.9579 63.9673C74.0836 64.1263 74.2435 64.2547 74.4257 64.343Z" fill="#46A622"/>
<path d="M81.8997 74.1694C82.0857 74.2621 82.2905 74.3101 82.4981 74.3098C83.0833 74.3098 83.6216 73.9227 83.7888 73.3299L87.4917 60.1952C87.5888 59.8516 87.5458 59.4833 87.3724 59.1714C87.1989 58.8596 86.9091 58.6296 86.5668 58.5323C86.2245 58.4349 85.8576 58.478 85.547 58.6521C85.2363 58.8262 85.0073 59.1171 84.9102 59.4608L81.2063 72.5955C81.1495 72.7959 81.1398 73.0068 81.1781 73.2117C81.2163 73.4165 81.3014 73.6096 81.4266 73.7758C81.5518 73.942 81.7138 74.0767 81.8997 74.1694Z" fill="#46A622"/>
<path d="M5.21119 73.3299C5.37842 73.9227 5.91666 74.3098 6.50194 74.3098C6.70932 74.3099 6.9139 74.2618 7.09959 74.1691C7.28529 74.0764 7.44704 73.9417 7.57213 73.7757C7.69722 73.6097 7.78224 73.4167 7.82051 73.2121C7.85878 73.0075 7.84926 72.7968 7.79268 72.5965L4.08976 59.4608C4.04179 59.2906 3.96091 59.1316 3.85172 58.9928C3.74254 58.8541 3.6072 58.7382 3.45342 58.652C3.29965 58.5657 3.13045 58.5107 2.95549 58.49C2.78053 58.4694 2.60324 58.4836 2.43374 58.5317C2.26424 58.5799 2.10584 58.6611 1.9676 58.7707C1.82935 58.8803 1.71397 59.0162 1.62803 59.1705C1.54209 59.3249 1.48729 59.4948 1.46674 59.6704C1.44619 59.846 1.4603 60.024 1.50827 60.1942L5.21119 73.3299Z" fill="#46A622"/>
<path d="M17.5908 99.8364H71.4092C72.8208 99.8335 74.1922 99.3694 75.3179 98.5142C76.4435 97.659 77.2613 96.4593 77.6476 95.0962L79.301 89.2449C79.3885 88.9043 79.3398 88.5429 79.1654 88.2378C78.9909 87.9328 78.7046 87.7083 78.3675 87.6124C78.0303 87.5165 77.6692 87.5567 77.3613 87.7246C77.0534 87.8924 76.823 88.1744 76.7195 88.5105L75.0661 94.3649C74.8403 95.1643 74.361 95.8679 73.7009 96.3691C73.0407 96.8703 72.2358 97.1416 71.4081 97.1421H17.5898C16.7618 97.1407 15.9567 96.8684 15.2967 96.3666C14.6366 95.8647 14.1575 95.1605 13.9318 94.3607L12.2784 88.5105C12.2329 88.3374 12.1536 88.1751 12.0449 88.0331C11.9362 87.8911 11.8005 87.7723 11.6455 87.6837C11.4906 87.595 11.3196 87.5382 11.1426 87.5166C10.9655 87.495 10.786 87.509 10.6144 87.5579C10.4428 87.6068 10.2827 87.6895 10.1433 87.8013C10.004 87.913 9.8882 88.0515 9.80278 88.2087C9.71736 88.3658 9.664 88.5385 9.64582 88.7166C9.62765 88.8947 9.64502 89.0747 9.69692 89.246L11.3503 95.092C11.7359 96.456 12.5535 97.6569 13.6795 98.5129C14.8054 99.3689 16.1784 99.8335 17.5908 99.8364Z" fill="#46A622"/>
<path d="M74.4257 64.343C74.6078 64.4312 74.8074 64.477 75.0097 64.4769C75.3122 64.4764 75.6058 64.3734 75.8427 64.1844C76.0796 63.9955 76.2461 63.7319 76.315 63.4361L78.5516 53.8256C78.6234 53.4812 78.5581 53.1223 78.3697 52.8256C78.1813 52.5289 77.8847 52.318 77.5434 52.238C77.2021 52.1579 76.8431 52.2151 76.5432 52.3973C76.2434 52.5795 76.0264 52.8722 75.9388 53.2129L73.7022 62.8234C73.6562 63.0211 73.6553 63.2267 73.6996 63.4248C73.7439 63.6228 73.8322 63.8083 73.9579 63.9673C74.0836 64.1263 74.2435 64.2547 74.4257 64.343Z" stroke="#46A622"/>
<path d="M81.8997 74.1694C82.0857 74.2621 82.2905 74.3101 82.4981 74.3098C83.0833 74.3098 83.6216 73.9227 83.7888 73.3299L87.4917 60.1952C87.5888 59.8516 87.5458 59.4833 87.3724 59.1714C87.1989 58.8596 86.9091 58.6296 86.5668 58.5323C86.2245 58.4349 85.8576 58.478 85.547 58.6521C85.2363 58.8262 85.0073 59.1171 84.9102 59.4608L81.2063 72.5955C81.1495 72.7959 81.1398 73.0068 81.1781 73.2117C81.2163 73.4165 81.3014 73.6096 81.4266 73.7758C81.5518 73.942 81.7138 74.0767 81.8997 74.1694Z" stroke="#46A622"/>
<path d="M5.21119 73.3299C5.37842 73.9227 5.91666 74.3098 6.50194 74.3098C6.70932 74.3099 6.9139 74.2618 7.09959 74.1691C7.28529 74.0764 7.44704 73.9417 7.57213 73.7757C7.69722 73.6097 7.78224 73.4167 7.82051 73.2121C7.85878 73.0075 7.84926 72.7968 7.79268 72.5965L4.08976 59.4608C4.04179 59.2906 3.96091 59.1316 3.85172 58.9928C3.74254 58.8541 3.6072 58.7382 3.45342 58.652C3.29965 58.5657 3.13045 58.5107 2.95549 58.49C2.78053 58.4694 2.60324 58.4836 2.43374 58.5317C2.26424 58.5799 2.10584 58.6611 1.9676 58.7707C1.82935 58.8803 1.71397 59.0162 1.62803 59.1705C1.54209 59.3249 1.48729 59.4948 1.46674 59.6704C1.44619 59.846 1.4603 60.024 1.50827 60.1942L5.21119 73.3299Z" stroke="#46A622"/>
<path d="M17.5908 99.8364H71.4092C72.8208 99.8335 74.1922 99.3694 75.3179 98.5142C76.4435 97.659 77.2613 96.4593 77.6476 95.0962L79.301 89.2449C79.3885 88.9043 79.3398 88.5429 79.1654 88.2378C78.9909 87.9328 78.7046 87.7083 78.3675 87.6124C78.0303 87.5165 77.6692 87.5567 77.3613 87.7246C77.0534 87.8924 76.823 88.1744 76.7195 88.5105L75.0661 94.3649C74.8403 95.1643 74.361 95.8679 73.7009 96.3691C73.0407 96.8703 72.2358 97.1416 71.4081 97.1421H17.5898C16.7618 97.1407 15.9567 96.8684 15.2967 96.3666C14.6366 95.8647 14.1575 95.1605 13.9318 94.3607L12.2784 88.5105C12.2329 88.3374 12.1536 88.1751 12.0449 88.0331C11.9362 87.8911 11.8005 87.7723 11.6455 87.6837C11.4906 87.595 11.3196 87.5382 11.1426 87.5166C10.9655 87.495 10.786 87.509 10.6144 87.5579C10.4428 87.6068 10.2827 87.6895 10.1433 87.8013C10.004 87.913 9.8882 88.0515 9.80278 88.2087C9.71736 88.3658 9.664 88.5385 9.64582 88.7166C9.62765 88.8947 9.64502 89.0747 9.69692 89.246L11.3503 95.092C11.7359 96.456 12.5535 97.6569 13.6795 98.5129C14.8054 99.3689 16.1784 99.8335 17.5908 99.8364Z" stroke="#46A622"/>
<path d="M12.6839 63.4356C12.8302 64.0568 13.381 64.4764 13.9903 64.4764C14.1926 64.4765 14.3922 64.4307 14.5743 64.3425C14.7565 64.2543 14.9164 64.1258 15.0421 63.9668C15.1678 63.8078 15.2561 63.6223 15.3004 63.4243C15.3447 63.2262 15.3438 63.0206 15.2978 62.8229L13.0602 53.2124C12.9725 52.8717 12.7556 52.579 12.4557 52.3968C12.1559 52.2146 11.7969 52.1574 11.4556 52.2375C11.1143 52.3175 10.8177 52.5284 10.6293 52.8251C10.4409 53.1218 10.3756 53.4807 10.4473 53.8251L12.6839 63.4356Z" fill="#46A622" stroke="#46A622"/>
<path d="M79.7494 90.4795C79.3348 90.4795 78.9188 90.4449 78.5015 90.3757C74.3899 89.6937 71.5973 85.7802 72.2756 81.6528L72.9445 77.5945C73.1039 76.6108 73.456 75.6684 73.9803 74.8221C74.5047 73.9757 75.1909 73.242 75.9994 72.6634C76.8052 72.0807 77.718 71.6642 78.6851 71.4378C79.6522 71.2115 80.6544 71.1798 81.6337 71.3446C85.7464 72.0265 88.539 75.94 87.8596 80.0675L87.1907 84.1267C87.0313 85.1105 86.6792 86.0528 86.1549 86.8992C85.6305 87.7456 84.9443 88.4793 84.1358 89.0579C82.8584 89.982 81.3239 90.4793 79.7494 90.4795ZM80.3994 73.9361C79.2448 73.9378 78.1282 74.3503 77.248 75.1005C76.3678 75.8506 75.7809 76.8897 75.5918 78.0331L74.9229 82.0924C74.7139 83.3729 75.0194 84.6843 75.7724 85.739C76.5253 86.7936 77.6643 87.5054 78.9394 87.7181C79.571 87.8249 80.2174 87.8048 80.8412 87.6589C81.465 87.513 82.0538 87.2443 82.5733 86.8682C83.095 86.4954 83.5377 86.0223 83.8759 85.4765C84.2141 84.9306 84.441 84.3227 84.5434 83.6882L85.2123 79.6289C85.3181 78.9948 85.2978 78.346 85.1525 77.7199C85.0072 77.0938 84.7398 76.5027 84.3657 75.9809C83.9943 75.4569 83.5229 75.0122 82.979 74.6725C82.435 74.3328 81.8293 74.105 81.1969 74.0021C80.9333 73.9584 80.6666 73.9363 80.3994 73.9361ZM9.25065 90.4795C7.67614 90.4793 6.14157 89.982 4.86421 89.0579C4.05554 88.4794 3.3691 87.7458 2.84456 86.8994C2.32002 86.053 1.96779 85.1106 1.80822 84.1267L1.14038 80.0675C0.46104 75.94 3.25365 72.0265 7.36626 71.3446C8.3454 71.1798 9.34737 71.2114 10.3143 71.4376C11.2812 71.6637 12.1938 72.08 12.9996 72.6623C13.8083 73.2409 14.4948 73.9748 15.0194 74.8213C15.5439 75.6679 15.8961 76.6105 16.0555 77.5945L16.7244 81.6517C17.4038 85.7813 14.6101 89.6947 10.4985 90.3757C10.0861 90.4445 9.66875 90.4793 9.25065 90.4795ZM8.60057 73.9361C8.3372 73.9361 8.07138 73.9581 7.80313 74.0021C7.17094 74.1051 6.5654 74.333 6.02161 74.6727C5.47783 75.0124 5.00663 75.457 4.63532 75.9809C4.26125 76.5027 3.99385 77.0938 3.84855 77.7199C3.70325 78.346 3.68293 78.9948 3.78876 79.6289L4.4566 83.6882C4.55904 84.3227 4.78593 84.9306 5.12411 85.4765C5.46229 86.0223 5.90504 86.4954 6.42669 86.8682C6.94623 87.2443 7.53498 87.513 8.15878 87.6589C8.78258 87.8048 9.42903 87.8249 10.0606 87.7181C11.3357 87.5051 12.4746 86.7931 13.2274 85.7383C13.9802 84.6834 14.2854 83.3718 14.076 82.0913L13.4072 78.0342C13.2183 76.8907 12.6317 75.8515 11.7517 75.1012C10.8717 74.3509 9.75516 73.9381 8.60057 73.9361Z" fill="#222222" stroke="#222222"/>
</g>
<defs>
<clipPath id="clip0_14_210">
<rect width="89" height="100" fill="white"/>
</clipPath>
</defs>
</svg>
