<svg width="35" height="48" viewBox="0 0 35 48" fill="none" xmlns="http://www.w3.org/2000/svg">
<g clip-path="url(#clip0_14_10)">
<path d="M17.5 22.8368C18.9225 22.8368 20.313 22.4159 21.4959 21.6274C22.6787 20.8389 23.6007 19.7181 24.1454 18.4068C24.6901 17.0954 24.8329 15.6523 24.5558 14.26C24.2788 12.8677 23.5943 11.5885 22.5889 10.5843C21.5835 9.58012 20.3023 8.89592 18.9073 8.61821C17.5123 8.3405 16.0661 8.48175 14.7516 9.02411C13.437 9.56646 12.3131 10.4856 11.5218 11.6653C10.7306 12.8449 10.3077 14.2322 10.3064 15.6518C10.3064 17.5562 11.0641 19.3828 12.413 20.7301C13.7618 22.0774 15.5915 22.8351 17.5 22.8368ZM17.5 11.6665C18.2899 11.6665 19.062 11.9002 19.7187 12.3381C20.3755 12.776 20.8873 13.3984 21.1896 14.1266C21.4919 14.8549 21.571 15.6562 21.4169 16.4292C21.2628 17.2023 20.8824 17.9124 20.3239 18.4698C19.7654 19.0271 19.0538 19.4067 18.2791 19.5605C17.5044 19.7142 16.7014 19.6353 15.9717 19.3337C15.242 19.0321 14.6183 18.5212 14.1794 17.8659C13.7406 17.2105 13.5064 16.44 13.5064 15.6518C13.5081 14.5953 13.9294 13.5826 14.678 12.8356C15.4265 12.0886 16.4413 11.6681 17.5 11.6665Z" fill="white"/>
<path d="M0.0888062 39.8282C0.0888062 45.1355 9.05841 48 17.5 48C25.9416 48 34.9112 45.1387 34.9112 39.8282C34.9112 36.4496 31.164 33.7034 24.9848 32.3973L29.9 24.9887C32.3433 21.7992 33.447 17.786 32.9776 13.7987C32.5082 9.81137 30.5024 6.1628 27.3848 3.62522C25.3309 1.94041 22.879 0.808257 20.2626 0.336533C17.6462 -0.135191 14.9523 0.0692188 12.4375 0.930303C9.92261 1.79139 7.67046 3.28048 5.89542 5.25584C4.12038 7.23119 2.88153 9.62705 2.29681 12.2153C1.79504 14.4032 1.78086 16.6743 2.25529 18.8683C2.72971 21.0622 3.68116 23.1254 5.04241 24.9121L10.0152 32.3973C3.83601 33.7034 0.0888062 36.4528 0.0888062 39.8282ZM5.42321 12.9083C5.9461 10.6028 7.12058 8.49535 8.80738 6.83583C10.4942 5.17631 12.6225 4.03435 14.94 3.54539C15.7703 3.38041 16.615 3.29805 17.4616 3.2995C19.7771 3.28022 22.0512 3.91252 24.023 5.12391C25.9949 6.3353 27.5848 8.07673 28.6103 10.1485C29.6358 12.2203 30.0555 14.5386 29.8212 16.8375C29.5869 19.1364 28.7081 21.3228 27.2856 23.1462L20.94 32.7038L20.9144 32.7454L18.4984 36.3794C18.3892 36.5434 18.241 36.6779 18.0671 36.771C17.8932 36.864 17.6989 36.9127 17.5016 36.9127C17.3043 36.9127 17.11 36.864 16.9361 36.771C16.7622 36.6779 16.614 36.5434 16.5048 36.3794L14.0824 32.739L14.06 32.707L7.65041 23.0631C6.55407 21.6373 5.7861 19.9878 5.40116 18.2321C5.01621 16.4764 5.02374 14.6608 5.42321 12.9083ZM11.9384 35.2936L13.836 38.1485C14.2376 38.7512 14.7822 39.2455 15.4215 39.5874C16.0607 39.9293 16.7747 40.1082 17.5 40.1082C18.2253 40.1082 18.9393 39.9293 19.5786 39.5874C20.2178 39.2455 20.7624 38.7512 21.164 38.1485L23.0616 35.2936C28.4792 36.2133 31.7112 38.2603 31.7112 39.8282C31.7112 41.8592 26.1752 44.8066 17.4968 44.8066C8.81841 44.8066 3.28881 41.8592 3.28881 39.8282C3.28881 38.2603 6.52081 36.2133 11.9384 35.2936Z" fill="white"/>
</g>
<defs>
<clipPath id="clip0_14_10">
<rect width="35" height="48" fill="white"/>
</clipPath>
</defs>
</svg>
