<svg width="140" height="100" viewBox="0 0 140 100" fill="none" xmlns="http://www.w3.org/2000/svg">
<g clip-path="url(#clip0_14_337)">
<path d="M69.9999 0.75H84.91C92.2167 0.750004 98.1598 6.67683 98.16 13.9531V24.0059H111.995C115.894 24.0059 120.346 26.3789 122.512 29.6123L136.003 49.7803V49.7793C137.843 52.5305 139.25 57.1578 139.25 60.4648V83.7207C139.25 84.7546 138.838 85.7467 138.103 86.4785C137.369 87.2103 136.372 87.6221 135.333 87.6221H124.682L124.521 88.1553C122.587 94.551 116.694 99.2499 109.667 99.25C102.639 99.25 96.7466 94.551 94.8124 88.1553L94.6512 87.6221H64.0155L63.8544 88.1553C61.9202 94.551 56.0274 99.25 48.9999 99.25C41.9724 99.2499 36.0795 94.551 34.1454 88.1553L33.9843 87.6221H27.8134C20.5067 87.6221 14.5635 81.6952 14.5634 74.4189V55.8135C14.5635 54.7798 14.9758 53.7883 15.7098 53.0566C16.4442 52.3248 17.4408 51.9131 18.4803 51.9131C19.5198 51.9132 20.5166 52.3248 21.2509 53.0566C21.9847 53.7883 22.3962 54.78 22.3964 55.8135V74.4189C22.3965 77.3981 24.8303 79.8193 27.8134 79.8193H33.9843L34.1454 79.2871C36.0794 72.8913 41.9723 68.1915 48.9999 68.1914C56.0276 68.1914 61.9203 72.8912 63.8544 79.2871L64.0155 79.8193H90.3309V13.9531C90.3307 10.974 87.8979 8.55286 84.9149 8.55273H69.9999C68.9604 8.5527 67.9637 8.14101 67.2294 7.40918C66.4952 6.67743 66.0829 5.68514 66.0829 4.65137C66.0829 3.6176 66.4952 2.62534 67.2294 1.89355C67.9637 1.1617 68.9604 0.750039 69.9999 0.75ZM48.9999 75.9941C44.7288 75.9942 41.25 79.4578 41.2499 83.7207C41.2499 87.9837 44.7288 91.4472 48.9999 91.4473C53.2711 91.4473 56.7499 87.9838 56.7499 83.7207C56.7498 79.4577 53.271 75.9941 48.9999 75.9941ZM109.667 75.9941C105.396 75.9941 101.917 79.4577 101.917 83.7207C101.917 87.9838 105.396 91.4473 109.667 91.4473C113.938 91.4472 117.417 87.9837 117.417 83.7207C117.417 79.4578 113.938 75.9942 109.667 75.9941ZM98.1649 73.2227L99.41 72.126C102.164 69.7014 105.73 68.1914 109.667 68.1914C116.694 68.1915 122.587 72.8913 124.521 79.2871L124.682 79.8193H131.417V60.4648C131.417 59.1034 130.879 57.0453 130.222 55.5176L130.026 55.0635H98.1649V73.2227ZM98.1649 47.2617H124.907L124.127 46.0947L115.997 33.9414V33.9404L115.838 33.7285C115.434 33.2402 114.808 32.8008 114.208 32.4805C113.522 32.1144 112.689 31.8086 112 31.8086H98.1649V47.2617Z" fill="#222222" stroke="white" stroke-width="1.5"/>
<path d="M23.333 37.959H37.333C38.3725 37.959 39.3692 38.3708 40.1035 39.1025C40.8377 39.8343 41.25 40.8265 41.25 41.8604C41.25 42.8942 40.8378 43.8864 40.1035 44.6182C39.3692 45.35 38.3725 45.7617 37.333 45.7617H23.333C22.2936 45.7616 21.2968 45.35 20.5625 44.6182C19.8284 43.8864 19.417 42.8941 19.417 41.8604C19.417 40.8266 19.8283 39.8343 20.5625 39.1025C21.2968 38.3707 22.2936 37.9591 23.333 37.959ZM14 19.3545H46.667C47.7064 19.3546 48.7033 19.7662 49.4375 20.498C50.1716 21.2298 50.583 22.2221 50.583 23.2559C50.583 24.2896 50.1717 25.2819 49.4375 26.0137C48.7033 26.7455 47.7064 27.1571 46.667 27.1572H14C12.9604 27.1572 11.9638 26.7455 11.2295 26.0137C10.4953 25.2819 10.083 24.2897 10.083 23.2559C10.083 22.222 10.4953 21.2299 11.2295 20.498C11.9638 19.7662 12.9604 19.3545 14 19.3545ZM4.66699 0.75H56C57.0396 0.75 58.0362 1.16167 58.7705 1.89355C59.5047 2.62535 59.917 3.61756 59.917 4.65137C59.9169 5.68514 59.5047 6.67742 58.7705 7.40918C58.0362 8.14099 57.0395 8.55273 56 8.55273H4.66699C3.62756 8.55273 2.63078 8.14089 1.89648 7.40918C1.16229 6.67742 0.750054 5.68514 0.75 4.65137C0.75 3.61752 1.16224 2.62536 1.89648 1.89355C2.6308 1.16172 3.62746 0.75 4.66699 0.75Z" fill="#46A622" stroke="white" stroke-width="1.5"/>
</g>
<defs>
<clipPath id="clip0_14_337">
<rect width="140" height="100" fill="white"/>
</clipPath>
</defs>
</svg>
