<svg width="119" height="100" viewBox="0 0 119 100" fill="none" xmlns="http://www.w3.org/2000/svg">
<g clip-path="url(#clip0_14_350)">
<path d="M46.9957 25.7209C31.9812 25.7209 19.7559 37.9303 19.7559 52.9535C19.7559 67.9768 31.9812 80.2093 46.9957 80.2093C62.0102 80.2093 74.2355 67.9768 74.2355 52.9535C74.2355 37.9303 62.0102 25.7209 46.9957 25.7209ZM46.9957 75.3489C34.6541 75.3489 24.6135 65.3023 24.6135 52.9535C24.6135 40.6047 34.6541 30.5582 46.9957 30.5582C59.3373 30.5582 69.3779 40.6047 69.3779 52.9535C69.3779 65.3023 59.3373 75.3489 46.9957 75.3489Z" fill="#46A622"/>
<path d="M119 75.2326V66.2791C119 64.9302 117.908 63.8605 116.583 63.8605C115.235 63.8605 114.166 64.9535 114.166 66.2791V72.8837H94.0379V54.0465C94.0379 49.1163 93.2709 44.3256 91.8764 39.814L98.8723 32.7907C102.312 29.3488 102.312 23.7674 98.8723 20.3256L81.1385 2.5814C77.6986 -0.860465 72.1205 -0.860465 68.6807 2.5814L62.568 8.69767C58.2217 7.09302 53.5732 6.16279 48.7621 5.97674C21.9871 5 0 26.3954 0 52.9535C0 78.907 21.0807 100 46.9957 100H84.16C88.6225 100 92.4109 97 93.5963 92.907H116.56C117.908 92.907 118.977 91.814 118.977 90.4884V75.3023C119 75.2791 119 75.2558 119 75.2326ZM89.1338 90.1628C89.1338 92.907 86.9025 95.1395 84.16 95.1395H46.9957C23.7535 95.1395 4.85762 76.2093 4.85762 52.9535C4.85762 29.186 24.4973 9.97674 48.5529 10.814C70.9352 11.6279 89.1338 31 89.1338 54.0233V90.1628ZM89.9705 34.7907C85.4383 24.3488 77.35 15.7907 67.3326 10.7674L72.074 6.02326C73.6313 4.46512 76.1182 4.48837 77.6522 6.02326L95.3859 23.7674C96.9199 25.3023 96.9199 27.814 95.3859 29.3488L89.9705 34.7907ZM114.142 88.0465H93.9914V77.7209H114.119V88.0465H114.142Z" fill="#222222"/>
</g>
<defs>
<clipPath id="clip0_14_350">
<rect width="119" height="100" fill="white"/>
</clipPath>
</defs>
</svg>
