<svg width="110" height="100" viewBox="0 0 110 100" fill="none" xmlns="http://www.w3.org/2000/svg">
<g clip-path="url(#clip0_14_303)">
<path d="M44.2237 10.817C34.6138 1.22329 15.8085 0.11084 2.49747 0.11084C1.11891 0.11084 0 1.2282 0 2.60515C0 15.9006 1.10884 34.6839 10.7187 44.2828C14.7746 48.3339 20.9931 50.1448 27.1565 50.1448C33.8545 50.1448 40.4926 48.0046 44.2237 44.2779C51.3813 37.1286 52.695 19.2732 44.2237 10.817ZM40.6925 40.7555C35.348 46.0886 20.5086 47.0016 14.2553 40.7555C6.49828 33.0079 5.15461 17.2677 5.00968 5.11466C17.177 5.25942 32.9356 6.60128 40.6923 14.3492C46.9459 20.5952 46.0319 35.4224 40.6925 40.7555ZM107.503 9.97887C94.1915 9.97887 75.3862 11.0864 65.7761 20.685C57.305 29.1413 58.6185 46.9967 65.7761 54.1459C69.5072 57.8677 76.1403 60.0079 82.8383 60.0079C89.0018 60.0079 95.2154 58.2019 99.2811 54.151C108.886 44.5524 110 25.7691 110 12.4734C110 11.0965 108.881 9.97887 107.503 9.97887ZM95.7398 50.6186C89.4865 56.8647 74.6419 55.9517 69.3026 50.6186C63.9632 45.2855 63.0492 30.4584 69.3026 24.2123C77.0595 16.4644 92.8179 15.1225 104.985 14.9778C104.84 27.1357 103.497 42.8759 95.7398 50.6186Z" fill="#46A622"/>
<path d="M89.4665 31.5709C88.8772 30.3186 87.1889 29.8897 85.9452 30.4683C66.7903 39.4633 57.3801 55.1485 53.1045 71.2727C47.815 36.9886 32.516 26.5369 26.0278 22.1018C25.2186 21.548 24.5893 21.1439 24.2397 20.7997C23.2657 19.8269 21.6823 19.8269 20.7083 20.7997C19.7343 21.7725 19.7343 23.3541 20.7083 24.327C21.2028 24.8159 22.0569 25.4296 23.2107 26.2177C30.5231 31.2117 49.9477 44.4872 49.9477 97.3949C49.9477 98.7718 51.0666 99.8894 52.4452 99.8894C53.8237 99.8894 54.9426 98.7718 54.9426 97.4C54.9426 76.0225 60.6917 47.84 88.073 34.9885C88.073 34.9835 88.4776 34.7939 88.4776 34.7939C89.7213 34.205 90.0558 32.818 89.4665 31.5709Z" fill="#222222"/>
</g>
<defs>
<clipPath id="clip0_14_303">
<rect width="110" height="100" fill="white"/>
</clipPath>
</defs>
</svg>
