<svg width="100" height="100" viewBox="0 0 100 100" fill="none" xmlns="http://www.w3.org/2000/svg">
<g clip-path="url(#clip0_14_290)">
<path fill-rule="evenodd" clip-rule="evenodd" d="M65.226 77.5728L71.3572 83.7039C71.7637 84.1104 72.3151 84.3387 72.89 84.3387C73.4648 84.3387 74.0162 84.1104 74.4228 83.7039L86.6851 71.4416C87.08 71.0327 87.2985 70.4851 87.2936 69.9166C87.2887 69.3482 87.0606 68.8044 86.6587 68.4024C86.2567 68.0005 85.7129 67.7725 85.1445 67.7675C84.576 67.7626 84.0284 67.9811 83.6195 68.376L72.89 79.1056L68.2916 74.5072C67.8827 74.1123 67.335 73.8938 66.7666 73.8987C66.1982 73.9036 65.6544 74.1316 65.2524 74.5336C64.8504 74.9356 64.6224 75.4793 64.6175 76.0478C64.6126 76.6162 64.8311 77.1639 65.226 77.5728ZM26.1517 39.5934C26.1517 38.3294 25.6488 37.1153 24.7555 36.2199C24.3125 35.7771 23.7865 35.4258 23.2077 35.1863C22.6289 34.9467 22.0085 34.8235 21.3821 34.8237H17.9133C16.6493 34.8237 15.4352 35.3267 14.5398 36.2199C14.097 36.663 13.7457 37.189 13.5062 37.7678C13.2666 38.3466 13.1434 38.9669 13.1436 39.5934V43.0622C13.1436 44.3262 13.6466 45.5403 14.5398 46.4357C15.4352 47.3289 16.6493 47.8319 17.9133 47.8319H21.3821C22.6461 47.8319 23.8601 47.3289 24.7555 46.4357C25.6488 45.5403 26.1517 44.3262 26.1517 43.0622V39.5934ZM21.8157 39.5934V43.0622C21.8152 43.177 21.7692 43.287 21.6878 43.3679C21.6068 43.4493 21.4969 43.4953 21.3821 43.4958H17.9133C17.7985 43.4953 17.6885 43.4493 17.6076 43.3679C17.5261 43.287 17.4801 43.177 17.4797 43.0622V39.5934C17.4797 39.4785 17.5252 39.3679 17.6076 39.2877C17.6885 39.2063 17.7985 39.1603 17.9133 39.1598H21.3821C21.497 39.1598 21.6076 39.2053 21.6878 39.2877C21.7692 39.3686 21.8152 39.4786 21.8157 39.5934ZM26.1517 56.9376C26.1517 55.6736 25.6488 54.4595 24.7555 53.5641C24.3125 53.1213 23.7865 52.77 23.2077 52.5305C22.6289 52.2909 22.0085 52.1677 21.3821 52.1679H17.9133C16.6493 52.1679 15.4352 52.6709 14.5398 53.5641C14.097 54.0072 13.7457 54.5331 13.5062 55.112C13.2666 55.6908 13.1434 56.3111 13.1436 56.9376V60.4064C13.1436 61.6703 13.6466 62.8844 14.5398 63.7798C15.4352 64.6731 16.6493 65.176 17.9133 65.176H21.3821C22.6461 65.176 23.8601 64.6731 24.7555 63.7798C25.6488 62.8844 26.1517 61.6703 26.1517 60.4064V56.9376ZM21.8157 56.9376V60.4064C21.8152 60.5212 21.7692 60.6311 21.6878 60.7121C21.6068 60.7935 21.4969 60.8395 21.3821 60.84H17.9133C17.7985 60.8395 17.6885 60.7935 17.6076 60.7121C17.5261 60.6311 17.4801 60.5212 17.4797 60.4064V56.9376C17.4797 56.8226 17.5252 56.7121 17.6076 56.6319C17.6885 56.5504 17.7985 56.5044 17.9133 56.5039H21.3821C21.497 56.5039 21.6076 56.5495 21.6878 56.6319C21.7692 56.7128 21.8152 56.8227 21.8157 56.9376ZM26.1517 74.2817C26.1517 73.0178 25.6488 71.8037 24.7555 70.9083C24.3125 70.4654 23.7865 70.1142 23.2077 69.8746C22.6289 69.6351 22.0085 69.5119 21.3821 69.5121H17.9133C16.6493 69.5121 15.4352 70.0151 14.5398 70.9083C14.097 71.3513 13.7457 71.8773 13.5062 72.4561C13.2666 73.0349 13.1434 73.6553 13.1436 74.2817V77.7506C13.1436 79.0145 13.6466 80.2286 14.5398 81.124C15.4352 82.0172 16.6493 82.5202 17.9133 82.5202H21.3821C22.6461 82.5202 23.8601 82.0172 24.7555 81.124C25.6488 80.2286 26.1517 79.0145 26.1517 77.7506V74.2817ZM21.8157 74.2817V77.7506C21.8152 77.8654 21.7692 77.9753 21.6878 78.0563C21.6068 78.1377 21.4969 78.1837 21.3821 78.1842H17.9133C17.7985 78.1837 17.6885 78.1377 17.6076 78.0563C17.5261 77.9753 17.4801 77.8654 17.4797 77.7506V74.2817C17.4797 74.1668 17.5252 74.0562 17.6076 73.976C17.6885 73.8946 17.7985 73.8486 17.9133 73.8481H21.3821C21.497 73.8481 21.6076 73.8936 21.6878 73.976C21.7692 74.057 21.8152 74.1669 21.8157 74.2817ZM43.4959 39.5934C43.4959 38.3294 42.9929 37.1153 42.0997 36.2199C41.6567 35.7771 41.1307 35.4258 40.5519 35.1863C39.9731 34.9467 39.3527 34.8235 38.7263 34.8237H35.2574C33.9935 34.8237 32.7794 35.3267 31.884 36.2199C31.4411 36.663 31.0899 37.189 30.8503 37.7678C30.6108 38.3466 30.4876 38.9669 30.4878 39.5934V43.0622C30.4878 44.3262 30.9908 45.5403 31.884 46.4357C32.7794 47.3289 33.9935 47.8319 35.2574 47.8319H38.7263C39.9902 47.8319 41.2043 47.3289 42.0997 46.4357C42.9929 45.5403 43.4959 44.3262 43.4959 43.0622V39.5934ZM39.1599 39.5934V43.0622C39.1594 43.177 39.1134 43.287 39.032 43.3679C38.951 43.4493 38.8411 43.4953 38.7263 43.4958H35.2574C35.1426 43.4953 35.0327 43.4493 34.9517 43.3679C34.8703 43.287 34.8243 43.177 34.8238 43.0622V39.5934C34.8238 39.4785 34.8694 39.3679 34.9517 39.2877C35.0327 39.2063 35.1426 39.1603 35.2574 39.1598H38.7263C38.8412 39.1598 38.9517 39.2053 39.032 39.2877C39.1134 39.3686 39.1594 39.4786 39.1599 39.5934ZM43.4959 56.9376C43.4959 55.6736 42.9929 54.4595 42.0997 53.5641C41.6567 53.1213 41.1307 52.77 40.5519 52.5305C39.9731 52.2909 39.3527 52.1677 38.7263 52.1679H35.2574C33.9935 52.1679 32.7794 52.6709 31.884 53.5641C31.4411 54.0072 31.0899 54.5331 30.8503 55.112C30.6108 55.6908 30.4876 56.3111 30.4878 56.9376V60.4064C30.4878 61.6703 30.9908 62.8844 31.884 63.7798C32.7794 64.6731 33.9935 65.176 35.2574 65.176H38.7263C39.9902 65.176 41.2043 64.6731 42.0997 63.7798C42.9929 62.8844 43.4959 61.6703 43.4959 60.4064V56.9376ZM39.1599 56.9376V60.4064C39.1594 60.5212 39.1134 60.6311 39.032 60.7121C38.951 60.7935 38.8411 60.8395 38.7263 60.84H35.2574C35.1426 60.8395 35.0327 60.7935 34.9517 60.7121C34.8703 60.6311 34.8243 60.5212 34.8238 60.4064V56.9376C34.8238 56.8226 34.8694 56.7121 34.9517 56.6319C35.0327 56.5504 35.1426 56.5044 35.2574 56.5039H38.7263C38.8412 56.5039 38.9517 56.5495 39.032 56.6319C39.1134 56.7128 39.1594 56.8227 39.1599 56.9376ZM43.4959 74.2817C43.4959 73.0178 42.9929 71.8037 42.0997 70.9083C41.6567 70.4654 41.1307 70.1142 40.5519 69.8746C39.9731 69.6351 39.3527 69.5119 38.7263 69.5121H35.2574C33.9935 69.5121 32.7794 70.0151 31.884 70.9083C31.4411 71.3513 31.0899 71.8773 30.8503 72.4561C30.6108 73.0349 30.4876 73.6553 30.4878 74.2817V77.7506C30.4878 79.0145 30.9908 80.2286 31.884 81.124C32.7794 82.0172 33.9935 82.5202 35.2574 82.5202H38.7263C39.9902 82.5202 41.2043 82.0172 42.0997 81.124C42.9929 80.2286 43.4959 79.0145 43.4959 77.7506V74.2817ZM39.1599 74.2817V77.7506C39.1594 77.8654 39.1134 77.9753 39.032 78.0563C38.951 78.1377 38.8411 78.1837 38.7263 78.1842H35.2574C35.1426 78.1837 35.0327 78.1377 34.9517 78.0563C34.8703 77.9753 34.8243 77.8654 34.8238 77.7506V74.2817C34.8238 74.1668 34.8694 74.0562 34.9517 73.976C35.0327 73.8946 35.1426 73.8486 35.2574 73.8481H38.7263C38.8412 73.8481 38.9517 73.8936 39.032 73.976C39.1134 74.057 39.1594 74.1669 39.1599 74.2817ZM60.8401 39.5934C60.8401 38.3294 60.3371 37.1153 59.4439 36.2199C59.0008 35.7771 58.4749 35.4258 57.896 35.1863C57.3172 34.9467 56.6969 34.8235 56.0704 34.8237H52.6016C51.3377 34.8237 50.1236 35.3267 49.2282 36.2199C48.7853 36.663 48.4341 37.189 48.1945 37.7678C47.955 38.3466 47.8318 38.9669 47.832 39.5934V43.0622C47.832 44.3262 48.3349 45.5403 49.2282 46.4357C50.1236 47.3289 51.3377 47.8319 52.6016 47.8319H56.0704C57.3344 47.8319 58.5485 47.3289 59.4439 46.4357C60.3371 45.5403 60.8401 44.3262 60.8401 43.0622V39.5934ZM56.5041 39.5934V43.0622C56.5036 43.177 56.4576 43.287 56.3761 43.3679C56.2952 43.4493 56.1853 43.4953 56.0704 43.4958H52.6016C52.4868 43.4953 52.3769 43.4493 52.2959 43.3679C52.2145 43.287 52.1685 43.177 52.168 43.0622V39.5934C52.168 39.4785 52.2135 39.3679 52.2959 39.2877C52.3769 39.2063 52.4868 39.1603 52.6016 39.1598H56.0704C56.1854 39.1598 56.2959 39.2053 56.3761 39.2877C56.4576 39.3686 56.5036 39.4786 56.5041 39.5934ZM78.1843 39.5934C78.1843 38.3294 77.6813 37.1153 76.7881 36.2199C76.345 35.7771 75.819 35.4258 75.2402 35.1863C74.6614 34.9467 74.0411 34.8235 73.4146 34.8237H69.9458C68.6818 34.8237 67.4677 35.3267 66.5723 36.2199C66.1295 36.663 65.7783 37.189 65.5387 37.7678C65.2991 38.3466 65.1759 38.9669 65.1761 39.5934V43.0622C65.1761 44.3262 65.6791 45.5403 66.5723 46.4357C67.4677 47.3289 68.6818 47.8319 69.9458 47.8319H73.4146C74.6786 47.8319 75.8927 47.3289 76.7881 46.4357C77.6813 45.5403 78.1843 44.3262 78.1843 43.0622V39.5934ZM73.8482 39.5934V43.0622C73.8477 43.177 73.8018 43.287 73.7203 43.3679C73.6394 43.4493 73.5294 43.4953 73.4146 43.4958H69.9458C69.831 43.4953 69.721 43.4493 69.6401 43.3679C69.5587 43.287 69.5127 43.177 69.5122 43.0622V39.5934C69.5122 39.4785 69.5577 39.3679 69.6401 39.2877C69.721 39.2063 69.831 39.1603 69.9458 39.1598H73.4146C73.5295 39.1598 73.6401 39.2053 73.7203 39.2877C73.8018 39.3686 73.8477 39.4786 73.8482 39.5934Z" fill="#46A622"/>
<path fill-rule="evenodd" clip-rule="evenodd" d="M57.6249 91.1924H10.9756C9.55196 91.1927 8.14221 90.9125 6.82685 90.3679C5.51149 89.8233 4.31628 89.025 3.30948 88.0184C2.30295 87.0116 1.50459 85.8164 0.959992 84.5011C0.415397 83.1857 0.135233 81.7759 0.135498 80.3523V19.6477C0.135498 16.7727 1.27758 14.0155 3.31049 11.9826C5.34341 9.94966 8.10063 8.80758 10.9756 8.80758H17.4797V6.63956C17.4797 4.91458 18.1649 3.26024 19.3847 2.04049C20.6044 0.820746 22.2588 0.135498 23.9837 0.135498C25.7087 0.135498 27.3631 0.820746 28.5828 2.04049C29.8026 3.26024 30.4878 4.91458 30.4878 6.63956V8.80758H60.8401V6.63956C60.8401 4.91458 61.5254 3.26024 62.7451 2.04049C63.9649 0.820746 65.6192 0.135498 67.3442 0.135498C69.0692 0.135498 70.7235 0.820746 71.9432 2.04049C73.163 3.26024 73.8482 4.91458 73.8482 6.63956V8.80758H80.3523C83.2273 8.80758 85.9845 9.94966 88.0174 11.9826C90.0503 14.0155 91.1924 16.7727 91.1924 19.6477V57.6249C96.4889 62.0022 99.8645 68.6168 99.8645 76.0163C99.8645 89.1783 89.1783 99.8645 76.0163 99.8645C72.5006 99.8668 69.028 99.0903 65.8481 97.5909C62.6682 96.0915 59.8599 93.9063 57.6249 91.1924ZM76.0163 56.5041C86.7848 56.5041 95.5285 65.2477 95.5285 76.0163C95.5285 86.7848 86.7848 95.5285 76.0163 95.5285C65.2477 95.5285 56.5041 86.7848 56.5041 76.0163C56.5041 65.2477 65.2477 56.5041 76.0163 56.5041ZM86.8564 54.7718V30.4878H4.47154V80.3523C4.47154 82.078 5.15664 83.7322 6.37723 84.9507C7.5967 86.1705 9.25076 86.856 10.9756 86.8564H54.7718C53.1068 83.6043 52.168 79.9187 52.168 76.0163C52.168 62.8542 62.8542 52.168 76.0163 52.168C79.9187 52.168 83.6043 53.1068 86.8564 54.7718ZM73.8482 13.1436V15.3116C73.8482 17.0366 73.163 18.691 71.9432 19.9107C70.7235 21.1305 69.0692 21.8157 67.3442 21.8157C65.6192 21.8157 63.9649 21.1305 62.7451 19.9107C61.5254 18.691 60.8401 17.0366 60.8401 15.3116V13.1436H30.4878V15.3116C30.4878 17.0366 29.8026 18.691 28.5828 19.9107C27.3631 21.1305 25.7087 21.8157 23.9837 21.8157C22.2588 21.8157 20.6044 21.1305 19.3847 19.9107C18.1649 18.691 17.4797 17.0366 17.4797 15.3116V13.1436H10.9756C9.25062 13.1436 7.59629 13.8289 6.37654 15.0486C5.15679 16.2684 4.47154 17.9227 4.47154 19.6477V26.1518H86.8564V19.6477C86.8564 17.9227 86.1711 16.2684 84.9514 15.0486C83.7316 13.8289 82.0773 13.1436 80.3523 13.1436H73.8482ZM69.5122 6.63956V15.3116C69.5122 15.8866 69.2838 16.4381 68.8772 16.8447C68.4706 17.2513 67.9192 17.4797 67.3442 17.4797C66.7692 17.4797 66.2177 17.2513 65.8111 16.8447C65.4046 16.4381 65.1762 15.8866 65.1762 15.3116V6.63956C65.1762 6.06457 65.4046 5.51312 65.8111 5.10654C66.2177 4.69996 66.7692 4.47154 67.3442 4.47154C67.9192 4.47154 68.4706 4.69996 68.8772 5.10654C69.2838 5.51312 69.5122 6.06457 69.5122 6.63956ZM26.1518 6.63956V15.3116C26.1518 15.8866 25.9233 16.4381 25.5168 16.8447C25.1102 17.2513 24.5587 17.4797 23.9837 17.4797C23.4087 17.4797 22.8573 17.2513 22.4507 16.8447C22.0441 16.4381 21.8157 15.8866 21.8157 15.3116V6.63956C21.8157 6.06457 22.0441 5.51312 22.4507 5.10654C22.8573 4.69996 23.4087 4.47154 23.9837 4.47154C24.5587 4.47154 25.1102 4.69996 25.5168 5.10654C25.9233 5.51312 26.1518 6.06457 26.1518 6.63956Z" fill="#222222"/>
</g>
<defs>
<clipPath id="clip0_14_290">
<rect width="100" height="100" fill="white"/>
</clipPath>
</defs>
</svg>
