<svg width="100" height="100" viewBox="0 0 100 100" fill="none" xmlns="http://www.w3.org/2000/svg">
<g clip-path="url(#clip0_14_281)">
<path d="M38.3334 60C29.1284 60 21.6667 67.4617 21.6667 76.6667C21.6667 85.8717 29.1284 93.3333 38.3334 93.3333C47.5384 93.3333 55 85.8717 55 76.6667C54.9902 67.4658 47.5342 60.0098 38.3334 60ZM38.3334 90C30.9692 90 25 84.0308 25 76.6667C25 69.3025 30.9692 63.3333 38.3334 63.3333C45.6975 63.3333 51.6667 69.3025 51.6667 76.6667C51.6584 84.0267 45.6934 89.9917 38.3334 90Z" fill="#46A622"/>
<path d="M38.3334 71.6667C40.3688 71.6667 41.6667 72.653 41.6667 73.3334H45C45 70.9653 42.9021 69.0472 40 68.5001V66.6667H36.6667V68.5001C33.7646 69.043 31.6667 70.962 31.6667 73.3334C31.6667 76.1386 34.5948 78.3334 38.3334 78.3334C40.3688 78.3334 41.6667 79.3197 41.6667 80.0001C41.6667 80.6805 40.3688 81.6667 38.3334 81.6667C36.2979 81.6667 35 80.6805 35 80.0001H31.6667C31.6667 82.3682 33.7646 84.2863 36.6667 84.8334V86.6667H40V84.8334C42.9021 84.2905 45 82.3715 45 80.0001C45 77.1949 42.0719 75.0001 38.3334 75.0001C36.2979 75.0001 35 74.0138 35 73.3334C35 72.653 36.2979 71.6667 38.3334 71.6667Z" fill="#46A622"/>
<path d="M85 96.6667H15V56.6667H41.6667C44.4279 56.6667 46.6667 54.4279 46.6667 51.6667V10H65V30H85V53.3333H88.3333V27.6431L67.3567 6.66667H46.6667V5C46.6667 2.23875 44.4279 0 41.6667 0H5C2.23875 0 0 2.23875 0 5V51.6667C0 54.4279 2.23875 56.6667 5 56.6667H11.6667V100H88.3333V76.6667H85V96.6667ZM68.3333 12.3567L82.6433 26.6667H68.3333V12.3567ZM3.33333 51.6667V5C3.33333 4.55797 3.50893 4.13405 3.82149 3.82149C4.13405 3.50893 4.55797 3.33333 5 3.33333H41.6667C42.1087 3.33333 42.5326 3.50893 42.8452 3.82149C43.1577 4.13405 43.3333 4.55797 43.3333 5V51.6667C43.3333 52.1087 43.1577 52.5326 42.8452 52.8452C42.5326 53.1577 42.1087 53.3333 41.6667 53.3333H5C4.55797 53.3333 4.13405 53.1577 3.82149 52.8452C3.50893 52.5326 3.33333 52.1087 3.33333 51.6667Z" fill="#222222"/>
<path d="M53.3333 41.6667H56.6667V45H53.3333V41.6667ZM60 41.6667H80V45H60V41.6667ZM53.3333 35H56.6667V38.3333H53.3333V35ZM60 35H80V38.3333H60V35ZM53.3333 48.3333H56.6667V51.6667H53.3333V48.3333ZM60 48.3333H80V51.6667H60V48.3333ZM53.3333 55H56.6667V58.3333H53.3333V55ZM60 55H80V58.3333H60V55ZM41.6667 5H5V16.6667H41.6667V5ZM38.3333 13.3333H8.33333V8.33333H38.3333V13.3333ZM13.3333 18.3333H10C8.15917 18.3333 6.66667 19.8258 6.66667 21.6667V25C6.66667 26.8408 8.15917 28.3333 10 28.3333H13.3333C15.1742 28.3333 16.6667 26.8408 16.6667 25V21.6667C16.6667 19.8258 15.1742 18.3333 13.3333 18.3333ZM10 25V21.6667H13.3333V25H10ZM25 18.3333H21.6667C19.8258 18.3333 18.3333 19.8258 18.3333 21.6667V25C18.3333 26.8408 19.8258 28.3333 21.6667 28.3333H25C26.8408 28.3333 28.3333 26.8408 28.3333 25V21.6667C28.3333 19.8258 26.8408 18.3333 25 18.3333ZM21.6667 25V21.6667H25V25H21.6667ZM36.6667 18.3333H33.3333C31.4925 18.3333 30 19.8258 30 21.6667V25C30 26.8408 31.4925 28.3333 33.3333 28.3333H36.6667C38.5075 28.3333 40 26.8408 40 25V21.6667C40 19.8258 38.5075 18.3333 36.6667 18.3333ZM33.3333 25V21.6667H36.6667V25H33.3333ZM13.3333 30H10C8.15917 30 6.66667 31.4925 6.66667 33.3333V36.6667C6.66667 38.5075 8.15917 40 10 40H13.3333C15.1742 40 16.6667 38.5075 16.6667 36.6667V33.3333C16.6667 31.4925 15.1742 30 13.3333 30ZM10 36.6667V33.3333H13.3333V36.6667H10ZM25 30H21.6667C19.8258 30 18.3333 31.4925 18.3333 33.3333V36.6667C18.3333 38.5075 19.8258 40 21.6667 40H25C26.8408 40 28.3333 38.5075 28.3333 36.6667V33.3333C28.3333 31.4925 26.8408 30 25 30ZM21.6667 36.6667V33.3333H25V36.6667H21.6667ZM36.6667 30H33.3333C31.4925 30 30 31.4925 30 33.3333V36.6667C30 38.5075 31.4925 40 33.3333 40H36.6667C38.5075 40 40 38.5075 40 36.6667V33.3333C40 31.4925 38.5075 30 36.6667 30ZM33.3333 36.6667V33.3333H36.6667V36.6667H33.3333ZM13.3333 41.6667H10C8.15917 41.6667 6.66667 43.1592 6.66667 45V48.3333C6.66667 50.1742 8.15917 51.6667 10 51.6667H13.3333C15.1742 51.6667 16.6667 50.1742 16.6667 48.3333V45C16.6667 43.1592 15.1742 41.6667 13.3333 41.6667ZM10 48.3333V45H13.3333V48.3333H10ZM25 41.6667H21.6667C19.8258 41.6667 18.3333 43.1592 18.3333 45V48.3333C18.3333 50.1742 19.8258 51.6667 21.6667 51.6667H25C26.8408 51.6667 28.3333 50.1742 28.3333 48.3333V45C28.3333 43.1592 26.8408 41.6667 25 41.6667ZM21.6667 48.3333V45H25V48.3333H21.6667ZM36.6667 41.6667H33.3333C31.4925 41.6667 30 43.1592 30 45V48.3333C30 50.1742 31.4925 51.6667 33.3333 51.6667H36.6667C38.5075 51.6667 40 50.1742 40 48.3333V45C40 43.1592 38.5075 41.6667 36.6667 41.6667ZM33.3333 48.3333V45H36.6667V48.3333H33.3333ZM98.4863 53.1804C96.5079 51.2915 93.3952 51.2915 91.4169 53.1804L62.845 81.7513C62.7066 81.8912 62.5937 82.0543 62.5115 82.2331L58.4879 90.97C58.3461 91.2793 58.3024 91.6246 58.3626 91.9595C58.4229 92.2944 58.5841 92.6028 58.8248 92.8433C59.0653 93.0841 59.3738 93.2454 59.7087 93.3057C60.0436 93.366 60.389 93.3222 60.6983 93.1804L69.4352 89.1569C69.6143 89.0751 69.7774 88.9621 69.9171 88.8233L98.4863 60.2515C100.439 58.2992 100.439 55.1327 98.4863 53.1804ZM67.7687 86.2533L63.4021 88.265L65.4135 83.8981L86.7165 62.5936L89.0733 64.9504L67.7687 86.2533ZM91.435 62.5863L89.0781 60.2302L90.2452 59.0633L92.6019 61.42L91.435 62.5863ZM96.1354 57.8865L94.9571 59.065L92.6002 56.7081L93.7804 55.5298C94.0975 55.2267 94.5193 55.0576 94.9579 55.0576C95.3966 55.0576 95.8183 55.2267 96.1354 55.5298C96.4477 55.8425 96.623 56.2663 96.623 56.7081C96.623 57.15 96.4477 57.5738 96.1354 57.8865Z" fill="#222222"/>
<path d="M56.6666 41.6667H53.3333V45H56.6666V41.6667Z" fill="#46A622"/>
<path d="M80 41.6667H60V45H80V41.6667Z" fill="#46A622"/>
<path d="M56.6666 35H53.3333V38.3333H56.6666V35Z" fill="#46A622"/>
<path d="M80 35H60V38.3333H80V35Z" fill="#46A622"/>
<path d="M56.6666 48.3333H53.3333V51.6667H56.6666V48.3333Z" fill="#46A622"/>
<path d="M80 48.3333H60V51.6667H80V48.3333Z" fill="#46A622"/>
<path d="M56.6666 55H53.3333V58.3333H56.6666V55Z" fill="#46A622"/>
<path d="M80 55H60V58.3333H80V55Z" fill="#46A622"/>
</g>
<defs>
<clipPath id="clip0_14_281">
<rect width="100" height="100" fill="white"/>
</clipPath>
</defs>
</svg>
