<svg width="112" height="100" viewBox="0 0 112 100" fill="none" xmlns="http://www.w3.org/2000/svg">
<g clip-path="url(#clip0_14_296)">
<mask id="path-1-inside-1_14_296" fill="white">
<path d="M79.872 57.6658C80.2856 58.6395 81.0699 59.4096 82.0524 59.8069C83.035 60.2042 84.1354 60.1961 85.112 59.7845L109.556 49.4782C110.533 49.0664 111.306 48.2844 111.705 47.3043C112.104 46.3241 112.096 45.2259 111.684 44.2513L100.78 18.5236C100.367 17.5492 99.5832 16.7781 98.6006 16.3801C97.618 15.982 96.5171 15.9895 95.54 16.4009L84.484 21.0613L76.696 2.68322C76.4929 2.19921 76.1958 1.7601 75.8217 1.39124C75.4476 1.02237 75.004 0.731048 74.5165 0.534075C74.029 0.337102 73.5072 0.23838 72.9812 0.243605C72.4552 0.24883 71.9355 0.357898 71.452 0.564517L41.98 12.9934C41.0038 13.406 40.2318 14.1883 39.8335 15.1684C39.4352 16.1485 39.4433 17.2462 39.856 18.2204L49.2 40.2693V40.2732L57.676 60.2673C57.116 60.2194 56.572 60.0997 56 60.0997C53.0494 60.1142 50.1395 60.7877 47.484 62.0708L23.676 6.65729C23.3676 5.93971 22.855 5.32814 22.2016 4.89834C21.5481 4.46855 20.7827 4.23942 20 4.23933H4C2.93913 4.23933 1.92172 4.65971 1.17157 5.40798C0.421427 6.15626 0 7.17113 0 8.22936C0 9.28758 0.421427 10.3025 1.17157 11.0507C1.92172 11.799 2.93913 12.2194 4 12.2194H17.364L40.324 65.6618C40.52 66.1206 40.808 66.4997 41.132 66.8348C37.8446 70.4569 36.0167 75.1639 36 80.0498C36 91.0503 44.972 99.9999 56 99.9999C67.028 99.9999 76 91.0503 76 80.0498C76 79.591 75.896 79.164 75.864 78.7132L109.624 63.7466C110.594 63.3164 111.352 62.5196 111.733 61.5315C112.114 60.5434 112.085 59.445 111.654 58.4777C111.223 57.5105 110.424 56.7538 109.433 56.3741C108.443 55.9943 107.342 56.0226 106.372 56.4528L73.688 70.9446C72.7856 69.1536 71.6179 67.5086 70.224 66.0648L73.552 64.6603C74.0394 64.4587 74.482 64.1629 74.8543 63.7899C75.2266 63.4169 75.5212 62.9742 75.7212 62.4871C75.9212 62.0001 76.0226 61.4784 76.0197 60.9521C76.0167 60.4257 75.9093 59.9052 75.7038 59.4205C75.4983 58.9357 75.1987 58.4963 74.8222 58.1276C74.4457 57.7588 73.9998 57.468 73.5101 57.2719C73.0205 57.0758 72.4968 56.9783 71.9692 56.9849C71.4416 56.9916 70.9205 57.1023 70.436 57.3107L65.908 59.2179L58.12 40.8438L67.332 36.9575L70.448 44.3072C70.8616 45.2809 71.6459 46.051 72.6284 46.4483C73.611 46.8456 74.7114 46.8375 75.688 46.4259L86.744 41.7655C87.2282 41.5616 87.6674 41.2645 88.0364 40.8912C88.4054 40.5179 88.6971 40.0757 88.8947 39.59C89.0924 39.1042 89.1921 38.5843 89.1882 38.06C89.1843 37.5358 89.0768 37.0174 88.872 36.5346L85.756 29.185L94.968 25.2987L102.756 43.6727L81.996 52.4269C81.019 52.8419 80.2467 53.6264 79.8486 54.6085C79.4505 55.5905 79.4589 56.6899 79.872 57.6658ZM56.152 15.6827L57.708 19.3575C57.9126 19.8404 58.2105 20.2783 58.5848 20.6463C58.9591 21.0143 59.4023 21.3051 59.8893 21.5022C60.3762 21.6994 60.8973 21.7989 61.4228 21.7951C61.9483 21.7913 62.468 21.6843 62.952 21.4802C63.4361 21.2761 63.8751 20.9789 64.244 20.6056C64.6129 20.2323 64.9045 19.7901 65.1021 19.3044C65.2997 18.8187 65.3994 18.2989 65.3956 17.7747C65.3919 17.2505 65.2846 16.7322 65.08 16.2493L63.52 12.5745L70.888 9.46626L77.12 24.1655L55.016 33.4862L48.788 18.787L56.152 15.6827ZM56 92.0199C49.384 92.0199 44 86.6493 44 80.0498C44 73.4503 49.384 68.0797 56 68.0797C62.616 68.0797 68 73.4503 68 80.0498C68 86.6493 62.616 92.0199 56 92.0199ZM78.392 32.2972L79.952 35.972L76.268 37.5241L74.712 33.8493L76.552 33.0713L78.392 32.2972ZM4 60.0997H16C17.0609 60.0997 18.0783 59.6793 18.8284 58.931C19.5786 58.1828 20 57.1679 20 56.1097C20 55.0514 19.5786 54.0366 18.8284 53.2883C18.0783 52.54 17.0609 52.1196 16 52.1196H4C2.93913 52.1196 1.92172 52.54 1.17157 53.2883C0.421427 54.0366 0 55.0514 0 56.1097C0 57.1679 0.421427 58.1828 1.17157 58.931C1.92172 59.6793 2.93913 60.0997 4 60.0997ZM4 80.0498H24C25.0609 80.0498 26.0783 79.6294 26.8284 78.8812C27.5786 78.1329 28 77.118 28 76.0598C28 75.0016 27.5786 73.9867 26.8284 73.2384C26.0783 72.4901 25.0609 72.0698 24 72.0698H4C2.93913 72.0698 1.92172 72.4901 1.17157 73.2384C0.421427 73.9867 0 75.0016 0 76.0598C0 77.118 0.421427 78.1329 1.17157 78.8812C1.92172 79.6294 2.93913 80.0498 4 80.0498ZM4 99.9999H32C33.0609 99.9999 34.0783 99.5796 34.8284 98.8313C35.5786 98.083 36 97.0681 36 96.0099C36 94.9517 35.5786 93.9368 34.8284 93.1885C34.0783 92.4403 33.0609 92.0199 32 92.0199H4C2.93913 92.0199 1.92172 92.4403 1.17157 93.1885C0.421427 93.9368 0 94.9517 0 96.0099C0 97.0681 0.421427 98.083 1.17157 98.8313C1.92172 99.5796 2.93913 99.9999 4 99.9999Z"/>
<path d="M16 60.0997H4C2.93913 60.0997 1.92172 59.6793 1.17157 58.931C0.421427 58.1828 0 57.1679 0 56.1097C0 55.0514 0.421427 54.0366 1.17157 53.2883C1.92172 52.54 2.93913 52.1196 4 52.1196H16C17.0609 52.1196 18.0783 52.54 18.8284 53.2883C19.5786 54.0366 20 55.0514 20 56.1097C20 57.1679 19.5786 58.1828 18.8284 58.931C18.0783 59.6793 17.0609 60.0997 16 60.0997Z"/>
<path d="M24 80.0498H4C2.93913 80.0498 1.92172 79.6294 1.17157 78.8812C0.421427 78.1329 0 77.118 0 76.0598C0 75.0016 0.421427 73.9867 1.17157 73.2384C1.92172 72.4901 2.93913 72.0698 4 72.0698H24C25.0609 72.0698 26.0783 72.4901 26.8284 73.2384C27.5786 73.9867 28 75.0016 28 76.0598C28 77.118 27.5786 78.1329 26.8284 78.8812C26.0783 79.6294 25.0609 80.0498 24 80.0498Z"/>
<path d="M32 99.9999H4C2.93913 99.9999 1.92172 99.5796 1.17157 98.8313C0.421427 98.083 0 97.0681 0 96.0099C0 94.9517 0.421427 93.9368 1.17157 93.1885C1.92172 92.4403 2.93913 92.0199 4 92.0199H32C33.0609 92.0199 34.0783 92.4403 34.8284 93.1885C35.5786 93.9368 36 94.9517 36 96.0099C36 97.0681 35.5786 98.083 34.8284 98.8313C34.0783 99.5796 33.0609 99.9999 32 99.9999Z"/>
</mask>
<path d="M79.872 57.6658C80.2856 58.6395 81.0699 59.4096 82.0524 59.8069C83.035 60.2042 84.1354 60.1961 85.112 59.7845L109.556 49.4782C110.533 49.0664 111.306 48.2844 111.705 47.3043C112.104 46.3241 112.096 45.2259 111.684 44.2513L100.78 18.5236C100.367 17.5492 99.5832 16.7781 98.6006 16.3801C97.618 15.982 96.5171 15.9895 95.54 16.4009L84.484 21.0613L76.696 2.68322C76.4929 2.19921 76.1958 1.7601 75.8217 1.39124C75.4476 1.02237 75.004 0.731048 74.5165 0.534075C74.029 0.337102 73.5072 0.23838 72.9812 0.243605C72.4552 0.24883 71.9355 0.357898 71.452 0.564517L41.98 12.9934C41.0038 13.406 40.2318 14.1883 39.8335 15.1684C39.4352 16.1485 39.4433 17.2462 39.856 18.2204L49.2 40.2693V40.2732L57.676 60.2673C57.116 60.2194 56.572 60.0997 56 60.0997C53.0494 60.1142 50.1395 60.7877 47.484 62.0708L23.676 6.65729C23.3676 5.93971 22.855 5.32814 22.2016 4.89834C21.5481 4.46855 20.7827 4.23942 20 4.23933H4C2.93913 4.23933 1.92172 4.65971 1.17157 5.40798C0.421427 6.15626 0 7.17113 0 8.22936C0 9.28758 0.421427 10.3025 1.17157 11.0507C1.92172 11.799 2.93913 12.2194 4 12.2194H17.364L40.324 65.6618C40.52 66.1206 40.808 66.4997 41.132 66.8348C37.8446 70.4569 36.0167 75.1639 36 80.0498C36 91.0503 44.972 99.9999 56 99.9999C67.028 99.9999 76 91.0503 76 80.0498C76 79.591 75.896 79.164 75.864 78.7132L109.624 63.7466C110.594 63.3164 111.352 62.5196 111.733 61.5315C112.114 60.5434 112.085 59.445 111.654 58.4777C111.223 57.5105 110.424 56.7538 109.433 56.3741C108.443 55.9943 107.342 56.0226 106.372 56.4528L73.688 70.9446C72.7856 69.1536 71.6179 67.5086 70.224 66.0648L73.552 64.6603C74.0394 64.4587 74.482 64.1629 74.8543 63.7899C75.2266 63.4169 75.5212 62.9742 75.7212 62.4871C75.9212 62.0001 76.0226 61.4784 76.0197 60.9521C76.0167 60.4257 75.9093 59.9052 75.7038 59.4205C75.4983 58.9357 75.1987 58.4963 74.8222 58.1276C74.4457 57.7588 73.9998 57.468 73.5101 57.2719C73.0205 57.0758 72.4968 56.9783 71.9692 56.9849C71.4416 56.9916 70.9205 57.1023 70.436 57.3107L65.908 59.2179L58.12 40.8438L67.332 36.9575L70.448 44.3072C70.8616 45.2809 71.6459 46.051 72.6284 46.4483C73.611 46.8456 74.7114 46.8375 75.688 46.4259L86.744 41.7655C87.2282 41.5616 87.6674 41.2645 88.0364 40.8912C88.4054 40.5179 88.6971 40.0757 88.8947 39.59C89.0924 39.1042 89.1921 38.5843 89.1882 38.06C89.1843 37.5358 89.0768 37.0174 88.872 36.5346L85.756 29.185L94.968 25.2987L102.756 43.6727L81.996 52.4269C81.019 52.8419 80.2467 53.6264 79.8486 54.6085C79.4505 55.5905 79.4589 56.6899 79.872 57.6658ZM56.152 15.6827L57.708 19.3575C57.9126 19.8404 58.2105 20.2783 58.5848 20.6463C58.9591 21.0143 59.4023 21.3051 59.8893 21.5022C60.3762 21.6994 60.8973 21.7989 61.4228 21.7951C61.9483 21.7913 62.468 21.6843 62.952 21.4802C63.4361 21.2761 63.8751 20.9789 64.244 20.6056C64.6129 20.2323 64.9045 19.7901 65.1021 19.3044C65.2997 18.8187 65.3994 18.2989 65.3956 17.7747C65.3919 17.2505 65.2846 16.7322 65.08 16.2493L63.52 12.5745L70.888 9.46626L77.12 24.1655L55.016 33.4862L48.788 18.787L56.152 15.6827ZM56 92.0199C49.384 92.0199 44 86.6493 44 80.0498C44 73.4503 49.384 68.0797 56 68.0797C62.616 68.0797 68 73.4503 68 80.0498C68 86.6493 62.616 92.0199 56 92.0199ZM78.392 32.2972L79.952 35.972L76.268 37.5241L74.712 33.8493L76.552 33.0713L78.392 32.2972ZM4 60.0997H16C17.0609 60.0997 18.0783 59.6793 18.8284 58.931C19.5786 58.1828 20 57.1679 20 56.1097C20 55.0514 19.5786 54.0366 18.8284 53.2883C18.0783 52.54 17.0609 52.1196 16 52.1196H4C2.93913 52.1196 1.92172 52.54 1.17157 53.2883C0.421427 54.0366 0 55.0514 0 56.1097C0 57.1679 0.421427 58.1828 1.17157 58.931C1.92172 59.6793 2.93913 60.0997 4 60.0997ZM4 80.0498H24C25.0609 80.0498 26.0783 79.6294 26.8284 78.8812C27.5786 78.1329 28 77.118 28 76.0598C28 75.0016 27.5786 73.9867 26.8284 73.2384C26.0783 72.4901 25.0609 72.0698 24 72.0698H4C2.93913 72.0698 1.92172 72.4901 1.17157 73.2384C0.421427 73.9867 0 75.0016 0 76.0598C0 77.118 0.421427 78.1329 1.17157 78.8812C1.92172 79.6294 2.93913 80.0498 4 80.0498ZM4 99.9999H32C33.0609 99.9999 34.0783 99.5796 34.8284 98.8313C35.5786 98.083 36 97.0681 36 96.0099C36 94.9517 35.5786 93.9368 34.8284 93.1885C34.0783 92.4403 33.0609 92.0199 32 92.0199H4C2.93913 92.0199 1.92172 92.4403 1.17157 93.1885C0.421427 93.9368 0 94.9517 0 96.0099C0 97.0681 0.421427 98.083 1.17157 98.8313C1.92172 99.5796 2.93913 99.9999 4 99.9999Z" fill="#222222"/>
<path d="M16 60.0997H4C2.93913 60.0997 1.92172 59.6793 1.17157 58.931C0.421427 58.1828 0 57.1679 0 56.1097C0 55.0514 0.421427 54.0366 1.17157 53.2883C1.92172 52.54 2.93913 52.1196 4 52.1196H16C17.0609 52.1196 18.0783 52.54 18.8284 53.2883C19.5786 54.0366 20 55.0514 20 56.1097C20 57.1679 19.5786 58.1828 18.8284 58.931C18.0783 59.6793 17.0609 60.0997 16 60.0997Z" fill="#222222"/>
<path d="M24 80.0498H4C2.93913 80.0498 1.92172 79.6294 1.17157 78.8812C0.421427 78.1329 0 77.118 0 76.0598C0 75.0016 0.421427 73.9867 1.17157 73.2384C1.92172 72.4901 2.93913 72.0698 4 72.0698H24C25.0609 72.0698 26.0783 72.4901 26.8284 73.2384C27.5786 73.9867 28 75.0016 28 76.0598C28 77.118 27.5786 78.1329 26.8284 78.8812C26.0783 79.6294 25.0609 80.0498 24 80.0498Z" fill="#222222"/>
<path d="M32 99.9999H4C2.93913 99.9999 1.92172 99.5796 1.17157 98.8313C0.421427 98.083 0 97.0681 0 96.0099C0 94.9517 0.421427 93.9368 1.17157 93.1885C1.92172 92.4403 2.93913 92.0199 4 92.0199H32C33.0609 92.0199 34.0783 92.4403 34.8284 93.1885C35.5786 93.9368 36 94.9517 36 96.0099C36 97.0681 35.5786 98.083 34.8284 98.8313C34.0783 99.5796 33.0609 99.9999 32 99.9999Z" fill="#222222"/>
<path d="M79.872 57.6658C80.2856 58.6395 81.0699 59.4096 82.0524 59.8069C83.035 60.2042 84.1354 60.1961 85.112 59.7845L109.556 49.4782C110.533 49.0664 111.306 48.2844 111.705 47.3043C112.104 46.3241 112.096 45.2259 111.684 44.2513L100.78 18.5236C100.367 17.5492 99.5832 16.7781 98.6006 16.3801C97.618 15.982 96.5171 15.9895 95.54 16.4009L84.484 21.0613L76.696 2.68322C76.4929 2.19921 76.1958 1.7601 75.8217 1.39124C75.4476 1.02237 75.004 0.731048 74.5165 0.534075C74.029 0.337102 73.5072 0.23838 72.9812 0.243605C72.4552 0.24883 71.9355 0.357898 71.452 0.564517L41.98 12.9934C41.0038 13.406 40.2318 14.1883 39.8335 15.1684C39.4352 16.1485 39.4433 17.2462 39.856 18.2204L49.2 40.2693V40.2732L57.676 60.2673C57.116 60.2194 56.572 60.0997 56 60.0997C53.0494 60.1142 50.1395 60.7877 47.484 62.0708L23.676 6.65729C23.3676 5.93971 22.855 5.32814 22.2016 4.89834C21.5481 4.46855 20.7827 4.23942 20 4.23933H4C2.93913 4.23933 1.92172 4.65971 1.17157 5.40798C0.421427 6.15626 0 7.17113 0 8.22936C0 9.28758 0.421427 10.3025 1.17157 11.0507C1.92172 11.799 2.93913 12.2194 4 12.2194H17.364L40.324 65.6618C40.52 66.1206 40.808 66.4997 41.132 66.8348C37.8446 70.4569 36.0167 75.1639 36 80.0498C36 91.0503 44.972 99.9999 56 99.9999C67.028 99.9999 76 91.0503 76 80.0498C76 79.591 75.896 79.164 75.864 78.7132L109.624 63.7466C110.594 63.3164 111.352 62.5196 111.733 61.5315C112.114 60.5434 112.085 59.445 111.654 58.4777C111.223 57.5105 110.424 56.7538 109.433 56.3741C108.443 55.9943 107.342 56.0226 106.372 56.4528L73.688 70.9446C72.7856 69.1536 71.6179 67.5086 70.224 66.0648L73.552 64.6603C74.0394 64.4587 74.482 64.1629 74.8543 63.7899C75.2266 63.4169 75.5212 62.9742 75.7212 62.4871C75.9212 62.0001 76.0226 61.4784 76.0197 60.9521C76.0167 60.4257 75.9093 59.9052 75.7038 59.4205C75.4983 58.9357 75.1987 58.4963 74.8222 58.1276C74.4457 57.7588 73.9998 57.468 73.5101 57.2719C73.0205 57.0758 72.4968 56.9783 71.9692 56.9849C71.4416 56.9916 70.9205 57.1023 70.436 57.3107L65.908 59.2179L58.12 40.8438L67.332 36.9575L70.448 44.3072C70.8616 45.2809 71.6459 46.051 72.6284 46.4483C73.611 46.8456 74.7114 46.8375 75.688 46.4259L86.744 41.7655C87.2282 41.5616 87.6674 41.2645 88.0364 40.8912C88.4054 40.5179 88.6971 40.0757 88.8947 39.59C89.0924 39.1042 89.1921 38.5843 89.1882 38.06C89.1843 37.5358 89.0768 37.0174 88.872 36.5346L85.756 29.185L94.968 25.2987L102.756 43.6727L81.996 52.4269C81.019 52.8419 80.2467 53.6264 79.8486 54.6085C79.4505 55.5905 79.4589 56.6899 79.872 57.6658ZM56.152 15.6827L57.708 19.3575C57.9126 19.8404 58.2105 20.2783 58.5848 20.6463C58.9591 21.0143 59.4023 21.3051 59.8893 21.5022C60.3762 21.6994 60.8973 21.7989 61.4228 21.7951C61.9483 21.7913 62.468 21.6843 62.952 21.4802C63.4361 21.2761 63.8751 20.9789 64.244 20.6056C64.6129 20.2323 64.9045 19.7901 65.1021 19.3044C65.2997 18.8187 65.3994 18.2989 65.3956 17.7747C65.3919 17.2505 65.2846 16.7322 65.08 16.2493L63.52 12.5745L70.888 9.46626L77.12 24.1655L55.016 33.4862L48.788 18.787L56.152 15.6827ZM56 92.0199C49.384 92.0199 44 86.6493 44 80.0498C44 73.4503 49.384 68.0797 56 68.0797C62.616 68.0797 68 73.4503 68 80.0498C68 86.6493 62.616 92.0199 56 92.0199ZM78.392 32.2972L79.952 35.972L76.268 37.5241L74.712 33.8493L76.552 33.0713L78.392 32.2972ZM4 60.0997H16C17.0609 60.0997 18.0783 59.6793 18.8284 58.931C19.5786 58.1828 20 57.1679 20 56.1097C20 55.0514 19.5786 54.0366 18.8284 53.2883C18.0783 52.54 17.0609 52.1196 16 52.1196H4C2.93913 52.1196 1.92172 52.54 1.17157 53.2883C0.421427 54.0366 0 55.0514 0 56.1097C0 57.1679 0.421427 58.1828 1.17157 58.931C1.92172 59.6793 2.93913 60.0997 4 60.0997ZM4 80.0498H24C25.0609 80.0498 26.0783 79.6294 26.8284 78.8812C27.5786 78.1329 28 77.118 28 76.0598C28 75.0016 27.5786 73.9867 26.8284 73.2384C26.0783 72.4901 25.0609 72.0698 24 72.0698H4C2.93913 72.0698 1.92172 72.4901 1.17157 73.2384C0.421427 73.9867 0 75.0016 0 76.0598C0 77.118 0.421427 78.1329 1.17157 78.8812C1.92172 79.6294 2.93913 80.0498 4 80.0498ZM4 99.9999H32C33.0609 99.9999 34.0783 99.5796 34.8284 98.8313C35.5786 98.083 36 97.0681 36 96.0099C36 94.9517 35.5786 93.9368 34.8284 93.1885C34.0783 92.4403 33.0609 92.0199 32 92.0199H4C2.93913 92.0199 1.92172 92.4403 1.17157 93.1885C0.421427 93.9368 0 94.9517 0 96.0099C0 97.0681 0.421427 98.083 1.17157 98.8313C1.92172 99.5796 2.93913 99.9999 4 99.9999Z" stroke="white" stroke-width="2" mask="url(#path-1-inside-1_14_296)"/>
<path d="M16 60.0997H4C2.93913 60.0997 1.92172 59.6793 1.17157 58.931C0.421427 58.1828 0 57.1679 0 56.1097C0 55.0514 0.421427 54.0366 1.17157 53.2883C1.92172 52.54 2.93913 52.1196 4 52.1196H16C17.0609 52.1196 18.0783 52.54 18.8284 53.2883C19.5786 54.0366 20 55.0514 20 56.1097C20 57.1679 19.5786 58.1828 18.8284 58.931C18.0783 59.6793 17.0609 60.0997 16 60.0997Z" stroke="white" stroke-width="2" mask="url(#path-1-inside-1_14_296)"/>
<path d="M24 80.0498H4C2.93913 80.0498 1.92172 79.6294 1.17157 78.8812C0.421427 78.1329 0 77.118 0 76.0598C0 75.0016 0.421427 73.9867 1.17157 73.2384C1.92172 72.4901 2.93913 72.0698 4 72.0698H24C25.0609 72.0698 26.0783 72.4901 26.8284 73.2384C27.5786 73.9867 28 75.0016 28 76.0598C28 77.118 27.5786 78.1329 26.8284 78.8812C26.0783 79.6294 25.0609 80.0498 24 80.0498Z" stroke="white" stroke-width="2" mask="url(#path-1-inside-1_14_296)"/>
<path d="M32 99.9999H4C2.93913 99.9999 1.92172 99.5796 1.17157 98.8313C0.421427 98.083 0 97.0681 0 96.0099C0 94.9517 0.421427 93.9368 1.17157 93.1885C1.92172 92.4403 2.93913 92.0199 4 92.0199H32C33.0609 92.0199 34.0783 92.4403 34.8284 93.1885C35.5786 93.9368 36 94.9517 36 96.0099C36 97.0681 35.5786 98.083 34.8284 98.8313C34.0783 99.5796 33.0609 99.9999 32 99.9999Z" stroke="white" stroke-width="2" mask="url(#path-1-inside-1_14_296)"/>
<path d="M4 72.5698H24C24.9287 72.5698 25.8193 72.9376 26.4756 73.5923C27.1318 74.2469 27.5 75.1349 27.5 76.0601C27.4999 76.985 27.1316 77.8723 26.4756 78.5269C25.8193 79.1815 24.9287 79.5493 24 79.5493H4C3.07134 79.5493 2.18069 79.1815 1.52441 78.5269C0.86842 77.8723 0.500074 76.985 0.5 76.0601C0.5 75.1349 0.868226 74.2469 1.52441 73.5923C2.18069 72.9376 3.07134 72.5698 4 72.5698ZM4 52.6196H16C16.9287 52.6196 17.8193 52.9874 18.4756 53.6421C19.1318 54.2967 19.5 55.1847 19.5 56.1099C19.4999 57.0348 19.1316 57.9221 18.4756 58.5767C17.8193 59.2313 16.9287 59.6001 16 59.6001H4C3.07134 59.6001 2.1807 59.2313 1.52441 58.5767C0.868427 57.9221 0.500056 57.0348 0.5 56.1099C0.5 55.1847 0.868203 54.2967 1.52441 53.6421C2.1807 52.9874 3.07134 52.6196 4 52.6196Z" fill="#46A622" stroke="white"/>
<path d="M4 92.5198H32C32.9287 92.5198 33.8193 92.8876 34.4756 93.5422C35.1318 94.1968 35.5 95.0848 35.5 96.01C35.4999 96.935 35.1316 97.8223 34.4756 98.4768C33.8193 99.1315 32.9287 99.5002 32 99.5002H4C3.07134 99.5002 2.1807 99.1315 1.52441 98.4768C0.868425 97.8223 0.500055 96.935 0.5 96.01C0.5 95.0848 0.868203 94.1968 1.52441 93.5422C2.1807 92.8876 3.07134 92.5198 4 92.5198Z" fill="#46A622" stroke="white"/>
</g>
<defs>
<clipPath id="clip0_14_296">
<rect width="112" height="100" fill="white"/>
</clipPath>
</defs>
</svg>
