<svg width="30" height="30" viewBox="0 0 30 30" fill="none" xmlns="http://www.w3.org/2000/svg">
<g clip-path="url(#clip0_14_327)">
<path d="M29.1835 22.0169L24.9969 17.8304C23.5017 16.3352 20.9598 16.9333 20.3617 18.877C19.9132 20.2228 18.418 20.9704 17.0723 20.6713C14.0818 19.9237 10.0448 16.0361 9.29717 12.8962C8.84861 11.5504 9.74574 10.0552 11.0914 9.60672C13.0352 9.00863 13.6333 6.46678 12.1381 4.97157L7.95149 0.784985C6.75532 -0.261662 4.96106 -0.261662 3.91442 0.784985L1.07352 3.62588C-1.76738 6.6163 1.37256 14.5409 8.40005 21.5684C15.4275 28.5959 23.3522 31.8854 26.3426 28.8949L29.1835 26.054C30.2302 24.8578 30.2302 23.0636 29.1835 22.0169Z" fill="white"/>
</g>
<defs>
<clipPath id="clip0_14_327">
<rect width="30" height="30" fill="white"/>
</clipPath>
</defs>
</svg>
