<svg width="48" height="48" viewBox="0 0 48 48" fill="none" xmlns="http://www.w3.org/2000/svg">
<g clip-path="url(#clip0_14_7)">
<path d="M9.78095 31.9072C14.5153 37.5665 20.2144 42.0224 26.7192 45.1753C29.1958 46.3489 32.5078 47.7414 36.1979 47.9801C36.4266 47.9901 36.6454 48 36.8742 48C39.3508 48 41.34 47.1446 42.9612 45.3842C42.9712 45.3742 42.9911 45.3543 43.001 45.3344C43.5779 44.6382 44.2343 44.0116 44.9206 43.3452C45.3881 42.8976 45.8655 42.4302 46.323 41.9528C48.4415 39.7447 48.4415 36.9399 46.3031 34.8015L40.3255 28.8239C39.311 27.7696 38.0976 27.2126 36.8245 27.2126C35.5514 27.2126 34.328 27.7696 33.2836 28.8139L29.7229 32.3746C29.3947 32.1857 29.0565 32.0166 28.7383 31.8574C28.3404 31.6585 27.9724 31.4695 27.6442 31.2607C24.4018 29.2018 21.4577 26.5164 18.6429 23.0651C17.2207 21.2648 16.2658 19.753 15.5994 18.2114C16.5344 17.3659 17.4096 16.4807 18.255 15.6154C18.5534 15.3071 18.8618 14.9988 19.1701 14.6904C20.2443 13.6162 20.8211 12.373 20.8211 11.1098C20.8211 9.84666 20.2542 8.6034 19.1701 7.52922L16.2061 4.56527C15.858 4.21716 15.5298 3.87899 15.1916 3.53087C14.5352 2.85454 13.8489 2.15831 13.1726 1.5317C12.1481 0.527145 10.9446 0 9.67154 0C8.40838 0 7.19496 0.527145 6.13072 1.54165L2.41087 5.2615C1.0582 6.61417 0.292345 8.25528 0.133207 10.155C-0.0557693 12.5321 0.38186 15.0584 1.51572 18.1119C3.25629 22.8363 5.88207 27.2225 9.78095 31.9072ZM2.56006 10.3639C2.67942 9.04103 3.18667 7.93701 4.1415 6.98218L7.84145 3.28222C8.41833 2.72524 9.05488 2.4368 9.67154 2.4368C10.2783 2.4368 10.8949 2.72524 11.4618 3.30211C12.1282 3.91877 12.7548 4.56527 13.4312 5.25155C13.7693 5.59967 14.1175 5.94778 14.4656 6.30584L17.4295 9.26979C18.0462 9.88645 18.3645 10.5131 18.3645 11.1297C18.3645 11.7464 18.0462 12.373 17.4295 12.9896C17.1212 13.298 16.8129 13.6162 16.5045 13.9246C15.5795 14.8595 14.7142 15.7447 13.7594 16.5901L13.7097 16.6399C12.8841 17.4654 13.0134 18.2511 13.2124 18.8479C13.2223 18.8777 13.2323 18.8976 13.2422 18.9275C14.0081 20.7675 15.0723 22.518 16.7333 24.6067C19.7171 28.2868 22.8601 31.1413 26.3214 33.3394C26.749 33.6179 27.2066 33.8367 27.6342 34.0555C28.0321 34.2545 28.4001 34.4434 28.7283 34.6523C28.7681 34.6722 28.7979 34.6921 28.8377 34.712C29.1659 34.8811 29.4842 34.9606 29.8025 34.9606C30.5982 34.9606 31.1154 34.4534 31.2845 34.2843L35.0043 30.5644C35.5812 29.9876 36.2078 29.6792 36.8245 29.6792C37.5804 29.6792 38.197 30.1467 38.5849 30.5644L44.5824 36.552C45.776 37.7455 45.766 39.0385 44.5526 40.3017C44.1349 40.7493 43.6972 41.177 43.2298 41.6245C42.5335 42.3009 41.8075 42.9971 41.151 43.7828C40.0072 45.0162 38.6446 45.593 36.8841 45.593C36.7151 45.593 36.536 45.5831 36.3669 45.5731C33.1046 45.3643 30.071 44.0912 27.7934 43.007C21.6069 40.0133 16.1763 35.7663 11.6707 30.3755C7.96081 25.9097 5.46433 21.7522 3.81327 17.2963C2.78882 14.5611 2.40092 12.363 2.56006 10.3639Z" fill="white"/>
</g>
<defs>
<clipPath id="clip0_14_7">
<rect width="48" height="48" fill="white"/>
</clipPath>
</defs>
</svg>
