<svg width="25" height="30" viewBox="0 0 25 30" fill="none" xmlns="http://www.w3.org/2000/svg">
<g clip-path="url(#clip0_14_333)">
<path d="M12.287 14.4229C14.266 14.4229 15.9798 13.7122 17.3801 12.3101C18.7804 10.9082 19.4902 9.19289 19.4902 7.21126C19.4902 5.23021 18.7804 3.51472 17.3799 2.11233C15.9794 0.71064 14.2658 0 12.287 0C10.3076 0 8.59422 0.71064 7.19399 2.11256C5.79377 3.51449 5.08366 5.23004 5.08366 7.21126C5.08366 9.19289 5.79371 10.9084 7.19423 12.3104C8.59475 13.7121 10.3083 14.4229 12.287 14.4229ZM24.8907 23.0235C24.8503 22.4401 24.7686 21.8036 24.6484 21.1316C24.527 20.4545 24.3707 19.8144 24.1836 19.2294C23.9904 18.6247 23.7275 18.0276 23.4026 17.4554C23.0654 16.8615 22.6693 16.3443 22.2248 15.9187C21.76 15.4735 21.191 15.1156 20.5329 14.8544C19.8772 14.5947 19.1504 14.4632 18.3731 14.4632C18.0678 14.4632 17.7726 14.5885 17.2024 14.9602C16.797 15.2245 16.3905 15.4869 15.9828 15.7474C15.591 15.9973 15.0603 16.2315 14.4048 16.4434C13.7652 16.6506 13.1159 16.7557 12.4749 16.7557C11.834 16.7557 11.1849 16.6506 10.5446 16.4434C9.88984 16.2316 9.35911 15.9975 8.96776 15.7476C8.55973 15.4868 8.15283 15.2243 7.74709 14.9599C7.17758 14.5883 6.88208 14.4629 6.57682 14.4629C5.7992 14.4629 5.07274 14.5947 4.41719 14.8547C3.7596 15.1153 3.19033 15.4733 2.72509 15.9189C2.28087 16.3447 1.88455 16.8616 1.54775 17.4554C1.22311 18.0276 0.960257 18.6245 0.766741 19.2296C0.579826 19.8147 0.423576 20.4545 0.302198 21.1316C0.18193 21.8027 0.100272 22.4394 0.0598512 23.0242C0.0196506 23.6127 -0.000279371 24.2024 9.67786e-05 24.7922C9.67786e-05 26.3552 0.496357 27.6205 1.47497 28.5536C2.4415 29.4745 3.72035 29.9416 5.27554 29.9416H19.6757C21.2309 29.9416 22.5093 29.4747 23.4761 28.5537C24.4549 27.6212 24.9512 26.3557 24.9512 24.792C24.9509 24.1887 24.9307 23.5936 24.8907 23.0235Z" fill="white"/>
</g>
<defs>
<clipPath id="clip0_14_333">
<rect width="25" height="30" fill="white"/>
</clipPath>
</defs>
</svg>
