<svg width="100" height="100" viewBox="0 0 100 100" fill="none" xmlns="http://www.w3.org/2000/svg">
<g clip-path="url(#clip0_14_123)">
<path d="M14.6584 0H2.94294C1.32556 0 0.0142334 1.31133 0.0142334 2.92891V14.8396C0.0142334 16.4572 1.32537 17.7686 2.94314 17.7686C4.56072 17.7686 5.87205 16.4572 5.87205 14.8396V5.85781H14.6586C16.2761 5.85781 17.5875 4.54648 17.5875 2.92891C17.5873 1.31133 16.276 0 14.6584 0ZM97.057 0H85.3416C83.724 0 82.4127 1.31133 82.4127 2.92891C82.4127 4.54648 83.7238 5.85781 85.3416 5.85781H94.1281V14.8396C94.1281 16.4572 95.4394 17.7686 97.057 17.7686C98.6746 17.7686 99.9859 16.4572 99.9859 14.8396V2.92891C99.9859 1.31133 98.6746 0 97.057 0ZM14.6584 94.1141H5.87185V85.1322C5.87185 83.5147 4.56052 82.2033 2.94294 82.2033C1.32537 82.2033 0.0140381 83.5147 0.0140381 85.1322V97.043C0.0140381 98.6605 1.32517 99.9719 2.94294 99.9719H14.6584C16.276 99.9719 17.5873 98.6605 17.5873 97.043C17.5873 95.4254 16.276 94.1141 14.6584 94.1141ZM97.057 82.2033C95.4394 82.2033 94.1281 83.5147 94.1281 85.1322V94.1141H85.3416C83.724 94.1141 82.4127 95.4254 82.4127 97.043C82.4127 98.6605 83.724 99.9719 85.3416 99.9719H97.057C98.6746 99.9719 99.9859 98.6605 99.9859 97.043V85.1322C99.9859 83.5147 98.6746 82.2033 97.057 82.2033ZM92.2597 24.0279L51.4681 0.394727C51.022 0.136322 50.5155 0.000246425 49.9999 0.000246425C49.4843 0.000246425 48.9778 0.136322 48.5316 0.394727L7.72341 24.0277C6.8238 24.549 6.26228 25.5195 6.26228 26.5602C6.26254 26.566 6.26274 26.5718 6.26287 26.5775V73.4377C6.26287 74.4883 6.83377 75.4715 7.7531 75.9891L48.5318 99.6055C48.9789 99.8619 49.4848 99.9978 50.0002 100C50.5289 100 51.0455 99.8504 51.4685 99.6055L92.2306 75.9889L92.251 75.9771C93.1957 75.2955 93.7049 74.7227 93.7191 73.473C93.7193 73.4613 93.7203 73.4498 93.7203 73.4381V26.5779C93.7204 26.5721 93.7206 26.5663 93.7209 26.5605C93.7197 26.0476 93.5842 25.5439 93.3278 25.0995C93.0715 24.6552 92.7032 24.2857 92.2597 24.0279ZM47.0711 91.9894L15.0738 73.451L39.7416 59.3047C41.1449 58.5 41.6301 56.7102 40.8252 55.307C40.0207 53.9037 38.2308 53.4187 36.8275 54.2234L12.1201 68.382V31.6229L47.0711 51.6951V91.9894ZM50 46.6223L15.0695 26.5518L50 6.31387L84.9304 26.5518L50 46.6223ZM87.8816 68.382L63.1724 54.2232C61.7693 53.4187 59.9795 53.9035 59.1748 55.3068C58.3701 56.7102 58.8551 58.4998 60.2584 59.3045L84.9261 73.4506L52.9287 91.9891V51.6951L87.8814 31.6229L87.8816 68.382Z" fill="#222222"/>
<path d="M85.3416 0H97.057C98.6746 0 99.9859 1.31133 99.9859 2.92891V14.8396C99.9859 16.4572 98.6746 17.7686 97.057 17.7686C95.4394 17.7686 94.1281 16.4572 94.1281 14.8396V5.85781H85.3416C83.7238 5.85781 82.4127 4.54648 82.4127 2.92891C82.4127 1.31133 83.724 0 85.3416 0Z" fill="#46A622"/>
<path d="M5.87185 94.1139H14.6584C16.276 94.1139 17.5873 95.4252 17.5873 97.0428C17.5873 98.6603 16.276 99.9717 14.6584 99.9717H2.94294C1.32517 99.9717 0.0140381 98.6603 0.0140381 97.0428V85.132C0.0140381 83.5145 1.32537 82.2031 2.94294 82.2031C4.56052 82.2031 5.87185 83.5145 5.87185 85.132V94.1139Z" fill="#46A622"/>
<path d="M2.94275 0H14.6582C16.2758 0 17.5871 1.31133 17.5873 2.92891C17.5873 4.54648 16.276 5.85781 14.6584 5.85781H5.87185V14.8396C5.87185 16.4572 4.56052 17.7686 2.94294 17.7686C1.32517 17.7686 0.0140381 16.4572 0.0140381 14.8396V2.92891C0.0140381 1.31133 1.32537 0 2.94275 0Z" fill="#46A622"/>
<path d="M94.1281 85.132C94.1281 83.5145 95.4394 82.2031 97.057 82.2031C98.6746 82.2031 99.9859 83.5145 99.9859 85.132V97.0428C99.9859 98.6603 98.6746 99.9717 97.057 99.9717H85.3416C83.724 99.9717 82.4127 98.6603 82.4127 97.0428C82.4127 95.4252 83.724 94.1139 85.3416 94.1139H94.1281V85.132Z" fill="#46A622"/>
</g>
<defs>
<clipPath id="clip0_14_123">
<rect width="100" height="100" fill="white"/>
</clipPath>
</defs>
</svg>
