<svg width="112" height="100" viewBox="0 0 112 100" fill="none" xmlns="http://www.w3.org/2000/svg">
<g clip-path="url(#clip0_14_100)">
<mask id="path-1-inside-1_14_100" fill="white">
<path d="M79.872 57.666C80.2856 58.6398 81.0699 59.4099 82.0524 59.8072C83.035 60.2044 84.1354 60.1964 85.112 59.7847L109.556 49.4785C110.533 49.0666 111.306 48.2847 111.705 47.3045C112.104 46.3243 112.096 45.2262 111.684 44.2515L100.78 18.5239C100.367 17.5494 99.5832 16.7784 98.6006 16.3803C97.618 15.9823 96.5171 15.9898 95.54 16.4012L84.484 21.0615L76.696 2.68347C76.4929 2.19946 76.1958 1.76035 75.8217 1.39148C75.4476 1.02262 75.004 0.731292 74.5165 0.534319C74.029 0.337346 73.5072 0.238624 72.9812 0.243849C72.4552 0.249074 71.9355 0.358143 71.452 0.564762L41.98 12.9937C41.0038 13.4063 40.2318 14.1886 39.8335 15.1687C39.4352 16.1488 39.4433 17.2465 39.856 18.2206L49.2 40.2695V40.2735L57.676 60.2675C57.116 60.2196 56.572 60.0999 56 60.0999C53.0494 60.1145 50.1395 60.788 47.484 62.071L23.676 6.65753C23.3676 5.93995 22.855 5.32838 22.2016 4.89859C21.5481 4.46879 20.7827 4.23966 20 4.23957H4C2.93913 4.23957 1.92172 4.65995 1.17157 5.40823C0.421427 6.1565 0 7.17138 0 8.2296C0 9.28782 0.421427 10.3027 1.17157 11.051C1.92172 11.7992 2.93913 12.2196 4 12.2196H17.364L40.324 65.662C40.52 66.1209 40.808 66.4999 41.132 66.8351C37.8446 70.4571 36.0167 75.1642 36 80.05C36 91.0505 44.972 100 56 100C67.028 100 76 91.0505 76 80.05C76 79.5912 75.896 79.1643 75.864 78.7134L109.624 63.7468C110.594 63.3166 111.352 62.5199 111.733 61.5318C112.114 60.5437 112.085 59.4452 111.654 58.478C111.223 57.5108 110.424 56.7541 109.433 56.3743C108.443 55.9946 107.342 56.0229 106.372 56.453L73.688 70.9448C72.7856 69.1539 71.6179 67.5088 70.224 66.065L73.552 64.6605C74.0394 64.4589 74.482 64.1631 74.8543 63.7901C75.2266 63.4172 75.5212 62.9744 75.7212 62.4874C75.9212 62.0003 76.0226 61.4786 76.0197 60.9523C76.0167 60.426 75.9093 59.9055 75.7038 59.4207C75.4983 58.936 75.1987 58.4966 74.8222 58.1278C74.4457 57.7591 73.9998 57.4683 73.5101 57.2721C73.0205 57.076 72.4968 56.9785 71.9692 56.9852C71.4416 56.9918 70.9205 57.1025 70.436 57.3109L65.908 59.2181L58.12 40.8441L67.332 36.9578L70.448 44.3074C70.8616 45.2812 71.6459 46.0513 72.6284 46.4485C73.611 46.8458 74.7114 46.8378 75.688 46.4261L86.744 41.7658C87.2282 41.5619 87.6674 41.2648 88.0364 40.8915C88.4054 40.5182 88.6971 40.076 88.8947 39.5902C89.0924 39.1044 89.1921 38.5845 89.1882 38.0603C89.1843 37.536 89.0768 37.0177 88.872 36.5348L85.756 29.1852L94.968 25.2989L102.756 43.673L81.996 52.4271C81.019 52.8422 80.2467 53.6267 79.8486 54.6087C79.4505 55.5907 79.4589 56.6902 79.872 57.666ZM56.152 15.683L57.708 19.3578C57.9126 19.8406 58.2105 20.2785 58.5848 20.6465C58.9591 21.0145 59.4023 21.3054 59.8893 21.5025C60.3762 21.6996 60.8973 21.7991 61.4228 21.7953C61.9483 21.7915 62.468 21.6846 62.952 21.4805C63.4361 21.2764 63.8751 20.9792 64.244 20.6059C64.6129 20.2325 64.9045 19.7904 65.1021 19.3046C65.2997 18.8189 65.3994 18.2991 65.3956 17.7749C65.3919 17.2507 65.2846 16.7324 65.08 16.2496L63.52 12.5747L70.888 9.46651L77.12 24.1658L55.016 33.4865L48.788 18.7872L56.152 15.683ZM56 92.0201C49.384 92.0201 44 86.6496 44 80.05C44 73.4505 49.384 68.08 56 68.08C62.616 68.08 68 73.4505 68 80.05C68 86.6496 62.616 92.0201 56 92.0201ZM78.392 32.2974L79.952 35.9722L76.268 37.5244L74.712 33.8495L76.552 33.0715L78.392 32.2974ZM4 60.0999H16C17.0609 60.0999 18.0783 59.6796 18.8284 58.9313C19.5786 58.183 20 57.1681 20 56.1099C20 55.0517 19.5786 54.0368 18.8284 53.2885C18.0783 52.5402 17.0609 52.1199 16 52.1199H4C2.93913 52.1199 1.92172 52.5402 1.17157 53.2885C0.421427 54.0368 0 55.0517 0 56.1099C0 57.1681 0.421427 58.183 1.17157 58.9313C1.92172 59.6796 2.93913 60.0999 4 60.0999ZM4 80.05H24C25.0609 80.05 26.0783 79.6297 26.8284 78.8814C27.5786 78.1331 28 77.1182 28 76.06C28 75.0018 27.5786 73.9869 26.8284 73.2386C26.0783 72.4904 25.0609 72.07 24 72.07H4C2.93913 72.07 1.92172 72.4904 1.17157 73.2386C0.421427 73.9869 0 75.0018 0 76.06C0 77.1182 0.421427 78.1331 1.17157 78.8814C1.92172 79.6297 2.93913 80.05 4 80.05ZM4 100H32C33.0609 100 34.0783 99.5798 34.8284 98.8315C35.5786 98.0833 36 97.0684 36 96.0102C36 94.9519 35.5786 93.937 34.8284 93.1888C34.0783 92.4405 33.0609 92.0201 32 92.0201H4C2.93913 92.0201 1.92172 92.4405 1.17157 93.1888C0.421427 93.937 0 94.9519 0 96.0102C0 97.0684 0.421427 98.0833 1.17157 98.8315C1.92172 99.5798 2.93913 100 4 100Z"/>
<path d="M16 60.0999H4C2.93913 60.0999 1.92172 59.6796 1.17157 58.9313C0.421427 58.183 0 57.1681 0 56.1099C0 55.0517 0.421427 54.0368 1.17157 53.2885C1.92172 52.5402 2.93913 52.1199 4 52.1199H16C17.0609 52.1199 18.0783 52.5402 18.8284 53.2885C19.5786 54.0368 20 55.0517 20 56.1099C20 57.1681 19.5786 58.183 18.8284 58.9313C18.0783 59.6796 17.0609 60.0999 16 60.0999Z"/>
<path d="M24 80.05H4C2.93913 80.05 1.92172 79.6297 1.17157 78.8814C0.421427 78.1331 0 77.1182 0 76.06C0 75.0018 0.421427 73.9869 1.17157 73.2386C1.92172 72.4904 2.93913 72.07 4 72.07H24C25.0609 72.07 26.0783 72.4904 26.8284 73.2386C27.5786 73.9869 28 75.0018 28 76.06C28 77.1182 27.5786 78.1331 26.8284 78.8814C26.0783 79.6297 25.0609 80.05 24 80.05Z"/>
<path d="M32 100H4C2.93913 100 1.92172 99.5798 1.17157 98.8315C0.421427 98.0833 0 97.0684 0 96.0102C0 94.9519 0.421427 93.937 1.17157 93.1888C1.92172 92.4405 2.93913 92.0201 4 92.0201H32C33.0609 92.0201 34.0783 92.4405 34.8284 93.1888C35.5786 93.937 36 94.9519 36 96.0102C36 97.0684 35.5786 98.0833 34.8284 98.8315C34.0783 99.5798 33.0609 100 32 100Z"/>
</mask>
<path d="M79.872 57.666C80.2856 58.6398 81.0699 59.4099 82.0524 59.8072C83.035 60.2044 84.1354 60.1964 85.112 59.7847L109.556 49.4785C110.533 49.0666 111.306 48.2847 111.705 47.3045C112.104 46.3243 112.096 45.2262 111.684 44.2515L100.78 18.5239C100.367 17.5494 99.5832 16.7784 98.6006 16.3803C97.618 15.9823 96.5171 15.9898 95.54 16.4012L84.484 21.0615L76.696 2.68347C76.4929 2.19946 76.1958 1.76035 75.8217 1.39148C75.4476 1.02262 75.004 0.731292 74.5165 0.534319C74.029 0.337346 73.5072 0.238624 72.9812 0.243849C72.4552 0.249074 71.9355 0.358143 71.452 0.564762L41.98 12.9937C41.0038 13.4063 40.2318 14.1886 39.8335 15.1687C39.4352 16.1488 39.4433 17.2465 39.856 18.2206L49.2 40.2695V40.2735L57.676 60.2675C57.116 60.2196 56.572 60.0999 56 60.0999C53.0494 60.1145 50.1395 60.788 47.484 62.071L23.676 6.65753C23.3676 5.93995 22.855 5.32838 22.2016 4.89859C21.5481 4.46879 20.7827 4.23966 20 4.23957H4C2.93913 4.23957 1.92172 4.65995 1.17157 5.40823C0.421427 6.1565 0 7.17138 0 8.2296C0 9.28782 0.421427 10.3027 1.17157 11.051C1.92172 11.7992 2.93913 12.2196 4 12.2196H17.364L40.324 65.662C40.52 66.1209 40.808 66.4999 41.132 66.8351C37.8446 70.4571 36.0167 75.1642 36 80.05C36 91.0505 44.972 100 56 100C67.028 100 76 91.0505 76 80.05C76 79.5912 75.896 79.1643 75.864 78.7134L109.624 63.7468C110.594 63.3166 111.352 62.5199 111.733 61.5318C112.114 60.5437 112.085 59.4452 111.654 58.478C111.223 57.5108 110.424 56.7541 109.433 56.3743C108.443 55.9946 107.342 56.0229 106.372 56.453L73.688 70.9448C72.7856 69.1539 71.6179 67.5088 70.224 66.065L73.552 64.6605C74.0394 64.4589 74.482 64.1631 74.8543 63.7901C75.2266 63.4172 75.5212 62.9744 75.7212 62.4874C75.9212 62.0003 76.0226 61.4786 76.0197 60.9523C76.0167 60.426 75.9093 59.9055 75.7038 59.4207C75.4983 58.936 75.1987 58.4966 74.8222 58.1278C74.4457 57.7591 73.9998 57.4683 73.5101 57.2721C73.0205 57.076 72.4968 56.9785 71.9692 56.9852C71.4416 56.9918 70.9205 57.1025 70.436 57.3109L65.908 59.2181L58.12 40.8441L67.332 36.9578L70.448 44.3074C70.8616 45.2812 71.6459 46.0513 72.6284 46.4485C73.611 46.8458 74.7114 46.8378 75.688 46.4261L86.744 41.7658C87.2282 41.5619 87.6674 41.2648 88.0364 40.8915C88.4054 40.5182 88.6971 40.076 88.8947 39.5902C89.0924 39.1044 89.1921 38.5845 89.1882 38.0603C89.1843 37.536 89.0768 37.0177 88.872 36.5348L85.756 29.1852L94.968 25.2989L102.756 43.673L81.996 52.4271C81.019 52.8422 80.2467 53.6267 79.8486 54.6087C79.4505 55.5907 79.4589 56.6902 79.872 57.666ZM56.152 15.683L57.708 19.3578C57.9126 19.8406 58.2105 20.2785 58.5848 20.6465C58.9591 21.0145 59.4023 21.3054 59.8893 21.5025C60.3762 21.6996 60.8973 21.7991 61.4228 21.7953C61.9483 21.7915 62.468 21.6846 62.952 21.4805C63.4361 21.2764 63.8751 20.9792 64.244 20.6059C64.6129 20.2325 64.9045 19.7904 65.1021 19.3046C65.2997 18.8189 65.3994 18.2991 65.3956 17.7749C65.3919 17.2507 65.2846 16.7324 65.08 16.2496L63.52 12.5747L70.888 9.46651L77.12 24.1658L55.016 33.4865L48.788 18.7872L56.152 15.683ZM56 92.0201C49.384 92.0201 44 86.6496 44 80.05C44 73.4505 49.384 68.08 56 68.08C62.616 68.08 68 73.4505 68 80.05C68 86.6496 62.616 92.0201 56 92.0201ZM78.392 32.2974L79.952 35.9722L76.268 37.5244L74.712 33.8495L76.552 33.0715L78.392 32.2974ZM4 60.0999H16C17.0609 60.0999 18.0783 59.6796 18.8284 58.9313C19.5786 58.183 20 57.1681 20 56.1099C20 55.0517 19.5786 54.0368 18.8284 53.2885C18.0783 52.5402 17.0609 52.1199 16 52.1199H4C2.93913 52.1199 1.92172 52.5402 1.17157 53.2885C0.421427 54.0368 0 55.0517 0 56.1099C0 57.1681 0.421427 58.183 1.17157 58.9313C1.92172 59.6796 2.93913 60.0999 4 60.0999ZM4 80.05H24C25.0609 80.05 26.0783 79.6297 26.8284 78.8814C27.5786 78.1331 28 77.1182 28 76.06C28 75.0018 27.5786 73.9869 26.8284 73.2386C26.0783 72.4904 25.0609 72.07 24 72.07H4C2.93913 72.07 1.92172 72.4904 1.17157 73.2386C0.421427 73.9869 0 75.0018 0 76.06C0 77.1182 0.421427 78.1331 1.17157 78.8814C1.92172 79.6297 2.93913 80.05 4 80.05ZM4 100H32C33.0609 100 34.0783 99.5798 34.8284 98.8315C35.5786 98.0833 36 97.0684 36 96.0102C36 94.9519 35.5786 93.937 34.8284 93.1888C34.0783 92.4405 33.0609 92.0201 32 92.0201H4C2.93913 92.0201 1.92172 92.4405 1.17157 93.1888C0.421427 93.937 0 94.9519 0 96.0102C0 97.0684 0.421427 98.0833 1.17157 98.8315C1.92172 99.5798 2.93913 100 4 100Z" fill="#222222"/>
<path d="M16 60.0999H4C2.93913 60.0999 1.92172 59.6796 1.17157 58.9313C0.421427 58.183 0 57.1681 0 56.1099C0 55.0517 0.421427 54.0368 1.17157 53.2885C1.92172 52.5402 2.93913 52.1199 4 52.1199H16C17.0609 52.1199 18.0783 52.5402 18.8284 53.2885C19.5786 54.0368 20 55.0517 20 56.1099C20 57.1681 19.5786 58.183 18.8284 58.9313C18.0783 59.6796 17.0609 60.0999 16 60.0999Z" fill="#222222"/>
<path d="M24 80.05H4C2.93913 80.05 1.92172 79.6297 1.17157 78.8814C0.421427 78.1331 0 77.1182 0 76.06C0 75.0018 0.421427 73.9869 1.17157 73.2386C1.92172 72.4904 2.93913 72.07 4 72.07H24C25.0609 72.07 26.0783 72.4904 26.8284 73.2386C27.5786 73.9869 28 75.0018 28 76.06C28 77.1182 27.5786 78.1331 26.8284 78.8814C26.0783 79.6297 25.0609 80.05 24 80.05Z" fill="#222222"/>
<path d="M32 100H4C2.93913 100 1.92172 99.5798 1.17157 98.8315C0.421427 98.0833 0 97.0684 0 96.0102C0 94.9519 0.421427 93.937 1.17157 93.1888C1.92172 92.4405 2.93913 92.0201 4 92.0201H32C33.0609 92.0201 34.0783 92.4405 34.8284 93.1888C35.5786 93.937 36 94.9519 36 96.0102C36 97.0684 35.5786 98.0833 34.8284 98.8315C34.0783 99.5798 33.0609 100 32 100Z" fill="#222222"/>
<path d="M79.872 57.666C80.2856 58.6398 81.0699 59.4099 82.0524 59.8072C83.035 60.2044 84.1354 60.1964 85.112 59.7847L109.556 49.4785C110.533 49.0666 111.306 48.2847 111.705 47.3045C112.104 46.3243 112.096 45.2262 111.684 44.2515L100.78 18.5239C100.367 17.5494 99.5832 16.7784 98.6006 16.3803C97.618 15.9823 96.5171 15.9898 95.54 16.4012L84.484 21.0615L76.696 2.68347C76.4929 2.19946 76.1958 1.76035 75.8217 1.39148C75.4476 1.02262 75.004 0.731292 74.5165 0.534319C74.029 0.337346 73.5072 0.238624 72.9812 0.243849C72.4552 0.249074 71.9355 0.358143 71.452 0.564762L41.98 12.9937C41.0038 13.4063 40.2318 14.1886 39.8335 15.1687C39.4352 16.1488 39.4433 17.2465 39.856 18.2206L49.2 40.2695V40.2735L57.676 60.2675C57.116 60.2196 56.572 60.0999 56 60.0999C53.0494 60.1145 50.1395 60.788 47.484 62.071L23.676 6.65753C23.3676 5.93995 22.855 5.32838 22.2016 4.89859C21.5481 4.46879 20.7827 4.23966 20 4.23957H4C2.93913 4.23957 1.92172 4.65995 1.17157 5.40823C0.421427 6.1565 0 7.17138 0 8.2296C0 9.28782 0.421427 10.3027 1.17157 11.051C1.92172 11.7992 2.93913 12.2196 4 12.2196H17.364L40.324 65.662C40.52 66.1209 40.808 66.4999 41.132 66.8351C37.8446 70.4571 36.0167 75.1642 36 80.05C36 91.0505 44.972 100 56 100C67.028 100 76 91.0505 76 80.05C76 79.5912 75.896 79.1643 75.864 78.7134L109.624 63.7468C110.594 63.3166 111.352 62.5199 111.733 61.5318C112.114 60.5437 112.085 59.4452 111.654 58.478C111.223 57.5108 110.424 56.7541 109.433 56.3743C108.443 55.9946 107.342 56.0229 106.372 56.453L73.688 70.9448C72.7856 69.1539 71.6179 67.5088 70.224 66.065L73.552 64.6605C74.0394 64.4589 74.482 64.1631 74.8543 63.7901C75.2266 63.4172 75.5212 62.9744 75.7212 62.4874C75.9212 62.0003 76.0226 61.4786 76.0197 60.9523C76.0167 60.426 75.9093 59.9055 75.7038 59.4207C75.4983 58.936 75.1987 58.4966 74.8222 58.1278C74.4457 57.7591 73.9998 57.4683 73.5101 57.2721C73.0205 57.076 72.4968 56.9785 71.9692 56.9852C71.4416 56.9918 70.9205 57.1025 70.436 57.3109L65.908 59.2181L58.12 40.8441L67.332 36.9578L70.448 44.3074C70.8616 45.2812 71.6459 46.0513 72.6284 46.4485C73.611 46.8458 74.7114 46.8378 75.688 46.4261L86.744 41.7658C87.2282 41.5619 87.6674 41.2648 88.0364 40.8915C88.4054 40.5182 88.6971 40.076 88.8947 39.5902C89.0924 39.1044 89.1921 38.5845 89.1882 38.0603C89.1843 37.536 89.0768 37.0177 88.872 36.5348L85.756 29.1852L94.968 25.2989L102.756 43.673L81.996 52.4271C81.019 52.8422 80.2467 53.6267 79.8486 54.6087C79.4505 55.5907 79.4589 56.6902 79.872 57.666ZM56.152 15.683L57.708 19.3578C57.9126 19.8406 58.2105 20.2785 58.5848 20.6465C58.9591 21.0145 59.4023 21.3054 59.8893 21.5025C60.3762 21.6996 60.8973 21.7991 61.4228 21.7953C61.9483 21.7915 62.468 21.6846 62.952 21.4805C63.4361 21.2764 63.8751 20.9792 64.244 20.6059C64.6129 20.2325 64.9045 19.7904 65.1021 19.3046C65.2997 18.8189 65.3994 18.2991 65.3956 17.7749C65.3919 17.2507 65.2846 16.7324 65.08 16.2496L63.52 12.5747L70.888 9.46651L77.12 24.1658L55.016 33.4865L48.788 18.7872L56.152 15.683ZM56 92.0201C49.384 92.0201 44 86.6496 44 80.05C44 73.4505 49.384 68.08 56 68.08C62.616 68.08 68 73.4505 68 80.05C68 86.6496 62.616 92.0201 56 92.0201ZM78.392 32.2974L79.952 35.9722L76.268 37.5244L74.712 33.8495L76.552 33.0715L78.392 32.2974ZM4 60.0999H16C17.0609 60.0999 18.0783 59.6796 18.8284 58.9313C19.5786 58.183 20 57.1681 20 56.1099C20 55.0517 19.5786 54.0368 18.8284 53.2885C18.0783 52.5402 17.0609 52.1199 16 52.1199H4C2.93913 52.1199 1.92172 52.5402 1.17157 53.2885C0.421427 54.0368 0 55.0517 0 56.1099C0 57.1681 0.421427 58.183 1.17157 58.9313C1.92172 59.6796 2.93913 60.0999 4 60.0999ZM4 80.05H24C25.0609 80.05 26.0783 79.6297 26.8284 78.8814C27.5786 78.1331 28 77.1182 28 76.06C28 75.0018 27.5786 73.9869 26.8284 73.2386C26.0783 72.4904 25.0609 72.07 24 72.07H4C2.93913 72.07 1.92172 72.4904 1.17157 73.2386C0.421427 73.9869 0 75.0018 0 76.06C0 77.1182 0.421427 78.1331 1.17157 78.8814C1.92172 79.6297 2.93913 80.05 4 80.05ZM4 100H32C33.0609 100 34.0783 99.5798 34.8284 98.8315C35.5786 98.0833 36 97.0684 36 96.0102C36 94.9519 35.5786 93.937 34.8284 93.1888C34.0783 92.4405 33.0609 92.0201 32 92.0201H4C2.93913 92.0201 1.92172 92.4405 1.17157 93.1888C0.421427 93.937 0 94.9519 0 96.0102C0 97.0684 0.421427 98.0833 1.17157 98.8315C1.92172 99.5798 2.93913 100 4 100Z" stroke="#FFFCEB" stroke-width="2" mask="url(#path-1-inside-1_14_100)"/>
<path d="M16 60.0999H4C2.93913 60.0999 1.92172 59.6796 1.17157 58.9313C0.421427 58.183 0 57.1681 0 56.1099C0 55.0517 0.421427 54.0368 1.17157 53.2885C1.92172 52.5402 2.93913 52.1199 4 52.1199H16C17.0609 52.1199 18.0783 52.5402 18.8284 53.2885C19.5786 54.0368 20 55.0517 20 56.1099C20 57.1681 19.5786 58.183 18.8284 58.9313C18.0783 59.6796 17.0609 60.0999 16 60.0999Z" stroke="#FFFCEB" stroke-width="2" mask="url(#path-1-inside-1_14_100)"/>
<path d="M24 80.05H4C2.93913 80.05 1.92172 79.6297 1.17157 78.8814C0.421427 78.1331 0 77.1182 0 76.06C0 75.0018 0.421427 73.9869 1.17157 73.2386C1.92172 72.4904 2.93913 72.07 4 72.07H24C25.0609 72.07 26.0783 72.4904 26.8284 73.2386C27.5786 73.9869 28 75.0018 28 76.06C28 77.1182 27.5786 78.1331 26.8284 78.8814C26.0783 79.6297 25.0609 80.05 24 80.05Z" stroke="#FFFCEB" stroke-width="2" mask="url(#path-1-inside-1_14_100)"/>
<path d="M32 100H4C2.93913 100 1.92172 99.5798 1.17157 98.8315C0.421427 98.0833 0 97.0684 0 96.0102C0 94.9519 0.421427 93.937 1.17157 93.1888C1.92172 92.4405 2.93913 92.0201 4 92.0201H32C33.0609 92.0201 34.0783 92.4405 34.8284 93.1888C35.5786 93.937 36 94.9519 36 96.0102C36 97.0684 35.5786 98.0833 34.8284 98.8315C34.0783 99.5798 33.0609 100 32 100Z" stroke="#FFFCEB" stroke-width="2" mask="url(#path-1-inside-1_14_100)"/>
<path d="M4 72.5698H24C24.9287 72.5698 25.8193 72.9376 26.4756 73.5923C27.1318 74.2469 27.5 75.1349 27.5 76.0601C27.4999 76.985 27.1316 77.8723 26.4756 78.5269C25.8193 79.1815 24.9287 79.5493 24 79.5493H4C3.07134 79.5493 2.18069 79.1815 1.52441 78.5269C0.86842 77.8723 0.500074 76.985 0.5 76.0601C0.5 75.1349 0.868226 74.2469 1.52441 73.5923C2.18069 72.9376 3.07134 72.5698 4 72.5698ZM4 52.6196H16C16.9287 52.6196 17.8193 52.9874 18.4756 53.6421C19.1318 54.2967 19.5 55.1847 19.5 56.1099C19.4999 57.0348 19.1316 57.9221 18.4756 58.5767C17.8193 59.2313 16.9287 59.6001 16 59.6001H4C3.07134 59.6001 2.1807 59.2313 1.52441 58.5767C0.868427 57.9221 0.500056 57.0348 0.5 56.1099C0.5 55.1847 0.868203 54.2967 1.52441 53.6421C2.1807 52.9874 3.07134 52.6196 4 52.6196Z" fill="#46A622" stroke="#FFFCEB"/>
<path d="M4 92.5195H32C32.9287 92.5195 33.8193 92.8873 34.4756 93.542C35.1318 94.1966 35.5 95.0846 35.5 96.0098C35.4999 96.9347 35.1316 97.822 34.4756 98.4766C33.8193 99.1312 32.9287 99.5 32 99.5H4C3.07134 99.5 2.1807 99.1312 1.52441 98.4766C0.868425 97.822 0.500055 96.9347 0.5 96.0098C0.5 95.0846 0.868203 94.1966 1.52441 93.542C2.1807 92.8873 3.07134 92.5195 4 92.5195Z" fill="#46A622" stroke="#FFFCEB"/>
</g>
<defs>
<clipPath id="clip0_14_100">
<rect width="112" height="100" fill="white"/>
</clipPath>
</defs>
</svg>
