<svg width="100" height="100" viewBox="0 0 100 100" fill="none" xmlns="http://www.w3.org/2000/svg">
<g clip-path="url(#clip0_14_88)">
<path d="M39.757 67.3853L53.5676 25.9531C54.0791 24.4182 53.2496 22.759 51.7146 22.2473C50.1799 21.7357 48.5205 22.5652 48.0088 24.1002L34.1982 65.5324C33.6867 67.0674 34.5162 68.7265 36.0511 69.2383C36.3584 69.3406 36.6709 69.3892 36.9779 69.3892C38.2045 69.3894 39.3476 68.6131 39.757 67.3853ZM60.4556 54.532C65.3019 54.532 69.2447 50.5892 69.2447 45.743C69.2447 40.8967 65.3019 36.9539 60.4556 36.9539C55.6093 36.9539 51.6666 40.8967 51.6666 45.743C51.6666 50.5892 55.6093 54.532 60.4556 54.532ZM60.4556 42.8133C62.0711 42.8133 63.3853 44.1275 63.3853 45.743C63.3853 47.3584 62.0711 48.6726 60.4556 48.6726C58.8402 48.6726 57.526 47.3584 57.526 45.743C57.526 44.1275 58.8402 42.8133 60.4556 42.8133ZM27.3099 36.9539C22.4636 36.9539 18.5209 40.8967 18.5209 45.743C18.5209 50.5892 22.4636 54.532 27.3099 54.532C32.1562 54.532 36.099 50.5892 36.099 45.743C36.099 40.8967 32.1564 36.9539 27.3099 36.9539ZM27.3099 48.6726C25.6945 48.6726 24.3802 47.3584 24.3802 45.743C24.3802 44.1275 25.6945 42.8133 27.3099 42.8133C28.9254 42.8133 30.2396 44.1275 30.2396 45.743C30.2396 47.3584 28.9256 48.6726 27.3099 48.6726Z" fill="#46A622"/>
<path d="M99.4143 36.3285L89.198 22.7069L89.5967 19.9172C89.661 19.467 89.6196 19.0079 89.4758 18.5764C89.3319 18.145 89.0896 17.7529 88.768 17.4313L82.5531 11.2164L88.7678 5.00161C89.9119 3.85766 89.9119 2.00259 88.7678 0.858447C87.6238 -0.285498 85.7688 -0.285498 84.6246 0.858447L78.41 7.07329L72.1951 0.858447C71.8733 0.537078 71.4813 0.294921 71.0498 0.151099C70.6184 0.00727669 70.1594 -0.0342712 69.7092 0.0297363L40.7066 4.1729C40.0791 4.26258 39.4976 4.55336 39.0494 5.00161L3.1416 40.9094C-1.04688 45.0977 -1.04688 51.9129 3.1416 56.1012L33.525 86.4848C34.1332 87.0923 34.812 87.6246 35.5471 88.0703V89.2582C35.5471 95.1814 40.366 100 46.2893 100H89.258C95.1813 100 100 95.1814 100 89.2582V38.0864C100 37.4526 99.7945 36.8356 99.4143 36.3285ZM7.28477 51.958C5.38086 50.0541 5.38086 46.9565 7.28477 45.0526L42.502 9.8354L69.0875 6.03755L74.2666 11.2166L70.1234 15.3598L68.0518 13.2881C66.9078 12.1442 65.0527 12.1442 63.9086 13.2881C62.7645 14.4321 62.7645 16.2872 63.9086 17.4313L72.1951 25.7178C72.7672 26.2899 73.517 26.576 74.2666 26.576C75.0162 26.576 75.7662 26.2899 76.3381 25.7178C77.4822 24.5739 77.4822 22.7188 76.3381 21.5746L74.2664 19.503L78.4096 15.3598L83.5887 20.5389L79.7906 47.1244L44.5736 82.3416C43.6514 83.2639 42.4252 83.7717 41.1209 83.7717C39.8166 83.7717 38.5904 83.2637 37.6682 82.3416L7.28477 51.958ZM94.1408 89.2582C94.1408 91.9506 91.9504 94.141 89.258 94.141H46.2893C43.7182 94.141 41.6064 92.1434 41.4211 89.6188C44.0709 89.5453 46.6988 88.5027 48.7166 86.4848L84.6244 50.577C85.0727 50.1288 85.3634 49.5473 85.4531 48.9198L88.026 30.91L94.1408 39.0629V89.2582Z" fill="#222222"/>
</g>
<defs>
<clipPath id="clip0_14_88">
<rect width="100" height="100" fill="white"/>
</clipPath>
</defs>
</svg>
