<svg width="84" height="100" viewBox="0 0 84 100" fill="none" xmlns="http://www.w3.org/2000/svg">
<g clip-path="url(#clip0_14_82)">
<path d="M42 99.8552C40.4297 99.8552 38.9056 99.3914 37.5662 98.5102L13.1341 82.1856C10.5015 80.3769 8.5155 78.5682 6.99137 76.6204C2.57852 71.4043 0.170239 64.7746 0.202094 57.9305V23.287C0.202094 20.087 2.0957 17.1653 5.00539 15.8668L38.8132 0.840672C40.8916 -0.0868645 43.2932 -0.0868645 45.3716 0.840672L79.0871 15.8668C81.9967 17.1653 83.8904 20.087 83.8904 23.2407V57.8842C83.9039 62.6927 82.7297 67.4295 80.4728 71.6706C78.2159 75.9116 74.9469 79.5244 70.9584 82.1856L46.5262 98.5102C45.1868 99.3914 43.6165 99.8552 42.0924 99.8552H42ZM42.0462 7.10154C42.0462 7.10154 41.7229 7.10154 41.5844 7.1943L7.77653 22.2204C7.57705 22.3076 7.40618 22.4497 7.28361 22.6302C7.16103 22.8107 7.09175 23.0223 7.08374 23.2407V57.8842C7.08374 63.1711 8.88498 68.1334 12.3489 72.2146C13.5035 73.6987 14.9815 75.0436 16.9675 76.3885L41.3996 92.7131C41.7691 92.945 42.231 92.945 42.6466 92.7131L67.0788 76.3885C70.1153 74.3624 72.6037 71.6111 74.3206 68.3816C76.0375 65.152 76.9294 61.5451 76.9163 57.8842V23.2407C76.9163 22.7769 76.6392 22.4059 76.2235 22.2204L42.5081 7.1943C42.5081 7.1943 42.1848 7.10154 42.0462 7.10154Z" fill="#222222"/>
<path d="M37.3815 64.284C36.5501 64.284 35.6726 63.9594 35.026 63.3565L23.4796 52.5507C22.094 51.2522 22.0017 49.0261 23.2949 47.6348C24.5881 46.2435 26.805 46.1507 28.1905 47.4493L37.2429 55.9362L55.6709 36.7362C57.0103 35.3449 59.181 35.2985 60.5666 36.6435C61.9522 37.9884 61.9984 40.1681 60.659 41.5594L39.8755 63.2174C39.1827 63.913 38.3052 64.284 37.3815 64.284Z" fill="#46A622"/>
</g>
<defs>
<clipPath id="clip0_14_82">
<rect width="84" height="100" fill="white"/>
</clipPath>
</defs>
</svg>
